<!-- True vector trace of swap_logo_no_background_2.png artwork.
     potrace (threshold 128, turdSize 8, optTolerance 0.2, alphaMax 1.0);
     gradient stops sampled from the original bitmap by vertical band. -->
<svg xmlns="http://www.w3.org/2000/svg" viewBox="0 0 1024 1024">
  <title>Lettuce Swap logo</title>
  <defs>
    <linearGradient id="ls-leaf" x1="512" y1="173" x2="512" y2="820" gradientUnits="userSpaceOnUse">
      <stop offset="0" stop-color="#008800"/>
      <stop offset="0.28" stop-color="#009200"/>
      <stop offset="0.57" stop-color="#008700"/>
      <stop offset="0.67" stop-color="#007900"/>
      <stop offset="0.77" stop-color="#006102"/>
      <stop offset="1" stop-color="#014a02"/>
    </linearGradient>
  </defs>
  <path fill="url(#ls-leaf)" fill-rule="evenodd" d="M 720.985 174.873 C 717.951 175.844, 712.857 178.309, 709.665 180.352 C 696.722 188.631, 689.979 199.828, 686.490 218.837 C 683.099 237.317, 677.005 245, 665.738 245 C 661.770 245, 655.203 241.957, 653 239.097 C 651.449 237.084, 643.515 231.673, 639.530 229.910 C 632.515 226.807, 620.423 226.975, 612.304 230.288 C 600.871 234.953, 593.001 242.308, 587.456 253.508 L 583.500 261.500 583 278.154 L 582.500 294.808 579.396 299.154 C 573.276 307.723, 566.020 308.952, 551.484 303.882 C 543.967 301.260, 541.504 300.838, 536.017 301.231 C 524.036 302.088, 511.381 310.645, 506.040 321.500 C 503.070 327.536, 502.756 337.941, 505.330 345 C 509.165 355.516, 506.567 365.437, 498.980 369.248 C 494.301 371.599, 490.879 371.457, 481 368.500 C 468.763 364.837, 460.249 365.039, 451.910 369.191 C 437.608 376.310, 430.336 388.371, 429.091 407.034 C 428.566 414.894, 427.810 418.761, 426.110 422.272 C 423.091 428.509, 416.066 434.562, 409.411 436.660 C 403.008 438.678, 398.791 437.758, 390.668 432.570 C 376.909 423.782, 367.278 422.261, 356.719 427.209 C 350.987 429.895, 339 440.224, 339 442.477 C 339 444.172, 324.450 457.371, 318.052 461.478 C 308.011 467.926, 293.239 472.448, 278.359 473.631 C 265.756 474.633, 249.622 471.708, 233 465.409 C 226.623 462.992, 223.541 461.376, 206.815 451.679 C 187.686 440.589, 173.450 439.378, 159.349 447.641 C 154.224 450.645, 147.818 457.466, 146.335 461.500 C 141.960 473.399, 141.592 481.350, 144.869 493.233 C 154.272 527.340, 207.394 568.790, 276.395 595.861 C 322.424 613.920, 362.638 623.247, 420 629.166 C 437.024 630.923, 504.199 630.928, 521.500 629.174 C 597.821 621.435, 661.007 601.552, 709 570.174 C 713.675 567.118, 717.725 564.344, 718 564.010 C 718.275 563.677, 720.075 562.318, 722 560.990 C 729.700 555.681, 741.110 544.371, 750.237 533 C 765.186 514.378, 769.791 511.289, 786 509.012 C 800.418 506.986, 805.541 505.801, 811 503.227 C 818.358 499.758, 826.314 491.386, 829.128 484.153 C 833.360 473.274, 831.644 456.523, 825.550 449.219 C 821.709 444.616, 820 440.311, 820 435.239 C 820 431.112, 820.486 429.882, 823.227 427.079 C 825.002 425.263, 827.590 423.309, 828.977 422.735 C 830.365 422.162, 838.925 421.383, 848 421.003 C 863.339 420.362, 865.075 420.088, 872.676 417.113 C 884.359 412.539, 893.130 404.312, 898.481 392.911 C 902.116 385.165, 902.364 384.045, 902.364 375.382 C 902.364 366.829, 902.103 365.611, 898.932 359.320 C 895.396 352.308, 888.913 345.235, 882.082 340.936 C 877.435 338.012, 874 333.306, 874 329.862 C 874 326.090, 877.505 323.480, 889.818 318.080 C 895.957 315.387, 903.177 311.572, 905.863 309.601 C 915.593 302.458, 921.142 290.619, 921.142 277 C 921.142 270.431, 919.182 261.085, 916.910 256.821 C 910.060 243.964, 896.719 236, 882.035 236 C 877.977 236, 874.651 235.465, 873.506 234.628 C 871.756 233.348, 871.718 232.795, 872.935 226.342 C 875.042 215.178, 874.102 205.582, 870.138 197.772 C 865.772 189.169, 860.244 183.724, 851.480 179.393 C 845.958 176.663, 842.690 175.750, 836.929 175.325 C 822.462 174.258, 813.989 177.235, 795.209 189.981 C 784.268 197.407, 783.018 198, 778.308 198 C 772.604 198, 771.456 197.266, 764.815 189.370 C 759.087 182.561, 751.791 177.127, 745.325 174.854 C 738.660 172.511, 728.338 172.519, 720.985 174.873 M 722.500 200.437 C 716.865 203.843, 712.103 211.598, 710.927 219.283 C 708.912 232.456, 707.919 235.740, 702.341 247.680 C 698.902 255.042, 690.139 263.566, 682.115 267.355 C 676.288 270.106, 674.487 270.473, 667 270.438 C 656.884 270.391, 651.722 268.312, 644.292 261.292 C 632.725 250.366, 621.426 249.052, 613.399 257.699 C 608.387 263.098, 607.831 265.346, 607.040 283.405 C 606.327 299.698, 606.143 300.826, 603.120 307.446 C 599.253 315.913, 590.915 324.422, 582.376 328.615 C 577.221 331.146, 575.396 331.500, 567.500 331.500 C 559.483 331.500, 557.717 331.145, 551.332 328.250 C 541.834 323.943, 536.016 323.830, 531.974 327.872 C 527.822 332.024, 527.416 335.013, 529.878 343.318 C 531.283 348.060, 532.005 353.245, 532.003 358.581 C 532 366.822, 531.839 367.330, 525.701 378.461 C 523.154 383.080, 517.145 388.035, 510.019 391.393 C 501.221 395.539, 490.864 395.632, 480.727 391.656 C 472.879 388.578, 464.687 388.130, 461.181 390.586 C 459.936 391.458, 457.754 394.014, 456.332 396.266 C 454.128 399.758, 453.619 402.089, 452.872 412.121 C 451.860 425.705, 451.394 427.208, 445.484 435.986 C 440.962 442.702, 438.043 445.756, 432 450.093 C 421.212 457.836, 413.733 460.321, 402.635 459.850 C 394.864 459.520, 393.746 459.169, 383.224 453.750 C 377.083 450.587, 370.935 448, 369.563 448 C 365.018 448, 360.497 451.083, 355.970 457.269 C 337.044 483.132, 304.339 496.760, 266.436 494.578 C 244.558 493.318, 222.670 485.649, 200.311 471.408 C 190.444 465.124, 187.466 464, 180.675 464 C 173.490 464, 170.187 465.804, 167.359 471.272 C 164.267 477.252, 168.207 491.879, 175.500 501.498 C 186.538 516.054, 210.409 535.164, 235 549.129 C 287.045 578.685, 346.403 597.869, 407.685 604.939 C 518.439 617.716, 625.546 597.012, 699 548.627 C 703.125 545.910, 706.725 543.420, 707 543.093 C 707.275 542.767, 709.652 540.770, 712.283 538.656 C 717.941 534.109, 726.286 525.826, 742 509.162 C 757.839 492.365, 762.761 489.839, 789 485.041 C 798.314 483.338, 803.417 480.093, 805.547 474.517 C 807.887 468.389, 806.991 464.060, 801.731 456.083 C 795.605 446.793, 794.485 443.555, 794.598 435.463 C 794.738 425.478, 798.367 417.727, 806.374 410.314 C 816.051 401.355, 824.286 398.534, 843.500 397.596 C 860.306 396.775, 867.783 393.887, 874.407 385.657 C 877.123 382.282, 877.500 381.054, 877.500 375.574 C 877.500 369.906, 877.187 368.974, 874.090 365.417 C 870.978 361.843, 869.519 360.651, 863.521 356.778 C 860.204 354.637, 853.193 347.366, 851.040 343.834 C 849.405 341.152, 849.007 338.783, 849.004 331.718 C 849 321.865, 850.188 318.076, 855.204 311.949 C 859.579 306.607, 864.915 303.045, 876.069 298.023 C 891.539 291.057, 895.440 287.362, 896.650 278.533 C 897.110 275.181, 896.691 273.008, 894.787 268.855 C 891.417 261.509, 886.538 259.071, 873.762 258.347 C 862.527 257.711, 858.653 256.610, 853.721 252.652 C 850.725 250.247, 849.519 248.225, 847.901 242.901 C 845.905 236.329, 845.900 236.034, 847.644 229.341 C 848.625 225.579, 849.444 219.262, 849.464 215.306 C 849.498 208.429, 849.345 207.949, 846 204.436 C 841.437 199.645, 837.394 198, 830.181 198 C 822.445 198, 817.461 200.542, 806 210.333 C 801.390 214.272, 793.505 219.329, 788.575 221.509 C 783.968 223.547, 781.355 223.998, 774.221 223.991 C 766.360 223.982, 764.982 223.684, 760.244 220.967 C 756.727 218.950, 753.088 215.511, 749.244 210.573 C 746.085 206.514, 741.722 202.024, 739.550 200.596 C 734.325 197.162, 728.015 197.103, 722.500 200.437 M 723.161 278.547 C 722.522 279.948, 722.004 281.635, 722.008 282.297 C 722.017 283.613, 717.420 298.672, 710.346 320.500 C 702.736 343.983, 689.313 368.776, 673.502 388.553 C 662.169 402.729, 640.074 425.737, 632 431.770 C 630.075 433.209, 628.002 434.972, 627.393 435.688 C 626.785 436.404, 623.394 439.130, 619.859 441.745 C 616.323 444.360, 612.771 447.059, 611.965 447.743 C 611.159 448.427, 608.475 450.602, 606 452.577 C 603.525 454.552, 600.580 456.918, 599.456 457.834 C 591.096 464.647, 583.953 468.097, 588.231 463.256 C 590.025 461.225, 599.376 442.707, 600.479 439 C 600.888 437.625, 601.784 435.150, 602.471 433.500 C 603.157 431.850, 604.242 429.220, 604.881 427.656 C 606.533 423.612, 611.552 404.037, 613.510 394 C 615.423 384.190, 616.635 355.629, 615.286 352.138 C 614.482 350.059, 614.219 350.477, 613.087 355.638 C 612.379 358.862, 610.511 365.775, 608.936 371 C 607.360 376.225, 605.793 382.300, 605.454 384.500 C 604.570 390.229, 598.291 409.047, 593.943 419 C 591.901 423.675, 589.894 428.625, 589.484 430 C 589.073 431.375, 587.903 433.686, 586.883 435.135 C 585.862 436.584, 584.105 439.734, 582.978 442.135 C 581.851 444.536, 579.481 448.750, 577.711 451.500 C 574.843 455.954, 572.717 458.828, 562.928 471.481 C 558.573 477.111, 543 490.181, 532.783 496.782 C 511.506 510.528, 485.264 521.861, 453.500 531.021 C 447.312 532.806, 430.015 536.007, 416 537.962 C 386.649 542.057, 343.618 542.113, 313.469 538.096 C 305.268 537.003, 298.388 536.278, 298.181 536.485 C 297.391 537.276, 306.947 540.904, 317.500 543.818 C 328.474 546.849, 337.916 548.752, 354 551.176 C 364.989 552.832, 406.908 552.802, 421.500 551.127 C 438.056 549.227, 462.548 544.517, 474.500 540.936 C 508.717 530.682, 535.359 518.557, 564 500.204 C 572.506 494.753, 574.520 493.408, 602.500 474.478 C 657.020 437.593, 699.286 418.616, 757.250 404.996 C 764.813 403.219, 771 401.368, 771 400.883 C 771 399.466, 751.309 399.865, 739.520 401.520 C 721.866 403.998, 709.375 406.863, 694 411.960 C 678.155 417.213, 666.037 421.817, 664.550 423.149 C 664.028 423.617, 662.974 424, 662.209 424 C 661.444 424, 664.079 420.288, 668.065 415.750 C 678.590 403.769, 687.926 393.402, 692.500 388.616 C 694.700 386.315, 698.568 382.197, 701.096 379.466 C 706.496 373.631, 726.075 355.031, 732.111 350 C 734.421 348.075, 737.704 345.290, 739.406 343.811 C 741.107 342.332, 744.525 339.482, 747 337.477 C 749.475 335.472, 752.400 333.079, 753.500 332.160 C 757.024 329.215, 769.281 320.594, 776.500 315.984 C 780.350 313.526, 783.950 311.156, 784.500 310.719 C 785.050 310.282, 787.975 308.377, 791 306.488 C 797.790 302.245, 795.655 302.079, 784.413 305.974 C 764.724 312.796, 742.531 325.243, 722.203 340.864 C 717.640 344.370, 713.728 347.062, 713.511 346.844 C 713.294 346.627, 714.156 343.311, 715.427 339.475 C 721.221 321.983, 725.013 303.243, 725.691 288.750 C 726.290 275.952, 725.603 273.185, 723.161 278.547 M 730 668.126 C 723.227 669.224, 713.902 673.680, 708.250 678.518 C 705.913 680.519, 703.962 681.783, 703.915 681.328 C 703.868 680.873, 703.897 678.212, 703.980 675.416 L 704.130 670.332 686.065 670.308 L 668 670.284 668 745.642 L 668 821 686 821 L 704 821 704 795.504 L 704 770.008 710.207 775.010 C 729.790 790.790, 760.971 788.759, 779.443 770.500 C 790.830 759.245, 796.365 744.982, 796.324 727 C 796.282 708.423, 791.149 695.151, 779.500 683.498 C 766.129 670.122, 749.512 664.962, 730 668.126 M 576 669.060 C 559.418 669.700, 556.020 670.670, 546.468 677.485 C 530.293 689.028, 522 705.648, 522 726.522 C 522 743.897, 527.566 758.387, 538.476 769.412 C 549.088 780.136, 561.923 785.316, 578 785.364 C 592.054 785.405, 600.343 782.583, 610.698 774.231 L 614.896 770.845 615.198 776.672 L 615.500 782.500 623 782.845 C 627.125 783.034, 634.663 782.880, 639.750 782.501 L 649 781.813 649 726.105 L 649 670.397 631.921 670.433 L 614.842 670.468 615.171 675.735 C 615.352 678.632, 615.368 681.002, 615.207 681.001 C 615.046 681.001, 612.571 679.256, 609.707 677.124 C 599.300 669.376, 594.923 668.329, 576 669.060 M 246.892 671.354 C 231.284 677.775, 223.459 687.134, 222.318 700.747 C 221.519 710.276, 223.767 716.869, 229.894 722.969 C 236.249 729.296, 243.434 732.386, 262.838 737.138 C 281.300 741.659, 284.575 742.973, 286.185 746.507 C 287.540 749.480, 285.233 753.581, 281.383 755.045 C 277.690 756.448, 267.399 756.182, 260.258 754.499 C 253.425 752.888, 242.610 748.283, 238.075 745.053 C 236.489 743.924, 234.742 743, 234.194 743 C 233.645 743, 229.692 748.464, 225.408 755.143 L 217.621 767.286 220.560 769.694 C 225.423 773.677, 240.945 780.744, 250 783.097 C 261.207 786.009, 281.308 786.303, 291 783.697 C 306.210 779.607, 316.836 771.363, 320.942 760.469 C 324.221 751.771, 323.597 739.692, 319.480 732.136 C 313.156 720.528, 303.014 715.399, 272.803 708.531 C 266.040 706.993, 260.030 705.025, 258.553 703.863 C 255.450 701.422, 255.269 697.970, 258.111 695.405 C 262.902 691.080, 286.134 693.980, 299.026 700.513 C 301.725 701.881, 304.343 703, 304.843 703 C 305.343 703, 307.464 699.737, 309.556 695.750 C 311.648 691.763, 314.599 686.393, 316.114 683.818 C 319.166 678.629, 319.140 678.567, 312.500 675.234 C 301.927 669.925, 296.130 668.998, 273.645 669.024 C 253.880 669.046, 252.134 669.198, 246.892 671.354 M 326.467 670.052 C 326.280 670.355, 329.251 679.355, 333.068 690.052 C 336.886 700.748, 345.745 725.925, 352.755 746 L 365.500 782.500 383.444 782.500 L 401.388 782.500 411.687 750.500 C 417.351 732.900, 421.989 717.938, 421.993 717.250 C 422.022 712.261, 425.280 720.339, 435 749.500 L 446.167 783 463.877 783 L 481.588 783 500.044 727.810 C 510.195 697.455, 518.639 672.066, 518.808 671.389 C 519.044 670.446, 514.986 670.199, 501.398 670.330 L 483.680 670.500 474.403 700.500 C 469.301 717, 464.579 732.525, 463.909 735 L 462.692 739.500 451.182 704.750 L 439.673 670 423.443 670 C 408.915 670, 407.142 670.183, 406.527 671.750 C 404.561 676.761, 386 735.393, 386 736.593 C 386 737.367, 385.603 738, 385.117 738 C 384.253 738, 380.784 727.678, 368.825 689.522 C 365.554 679.084, 362.792 670.460, 362.689 670.357 C 362.195 669.869, 326.763 669.570, 326.467 670.052 M 574.462 698.366 C 553.554 708.101, 552.406 740.819, 572.574 752.145 C 591.803 762.943, 616 748.734, 616 726.644 C 616 714.213, 610.420 704.590, 600.117 699.257 C 591.941 695.025, 582.352 694.691, 574.462 698.366 M 723.316 697.266 C 716.271 699.996, 711.329 704.586, 707.870 711.613 C 704.930 717.585, 704.524 719.358, 704.579 725.987 C 704.634 732.584, 705.071 734.353, 708.001 739.851 C 712.069 747.483, 717.719 752.542, 724.388 754.523 C 737.800 758.505, 750.585 753.389, 757.743 741.176 C 761.544 734.690, 762.092 722.882, 758.976 714.619 C 756.378 707.730, 751.281 701.701, 745.568 698.762 C 740.651 696.232, 728.153 695.392, 723.316 697.266"/>
</svg>
