<?xml version="1.0" encoding="UTF-8"?>
<svg xmlns="http://www.w3.org/2000/svg" width="1649" height="1520" viewBox="0 0 1649 1520" version="1.1" fill="currentColor">
  <title>SWAP logo vectorized</title>
  <desc>High-definition vector trace from supplied image; background removed.</desc>
  <path d="M 444.0 1120.0 L 444.0 1124.0 L 445.0 1125.0 L 445.0 1127.0 L 447.0 1131.0 L 447.0 1134.0 L 449.0 1137.0 L 449.0 1139.0 L 451.0 1143.0 L 451.0 1146.0 L 453.0 1149.0 L 453.0 1151.0 L 454.0 1152.0 L 454.0 1154.0 L 456.0 1158.0 L 456.0 1161.0 L 457.0 1162.0 L 457.0 1164.0 L 459.0 1166.0 L 459.0 1168.0 L 460.0 1169.0 L 460.0 1172.0 L 461.0 1173.0 L 461.0 1177.0 L 464.0 1181.0 L 465.0 1188.0 L 467.0 1190.0 L 467.0 1193.0 L 471.0 1201.0 L 471.0 1204.0 L 472.0 1205.0 L 473.0 1210.0 L 475.0 1213.0 L 475.0 1216.0 L 477.0 1219.0 L 477.0 1223.0 L 479.0 1225.0 L 479.0 1227.0 L 480.0 1228.0 L 480.0 1230.0 L 481.0 1231.0 L 481.0 1233.0 L 482.0 1234.0 L 482.0 1236.0 L 483.0 1237.0 L 483.0 1239.0 L 484.0 1240.0 L 484.0 1242.0 L 486.0 1246.0 L 486.0 1250.0 L 489.0 1255.0 L 489.0 1258.0 L 491.0 1261.0 L 491.0 1263.0 L 493.0 1265.0 L 493.0 1268.0 L 494.0 1269.0 L 494.0 1273.0 L 498.0 1281.0 L 498.0 1284.0 L 499.0 1285.0 L 499.0 1288.0 L 501.0 1290.0 L 501.0 1293.0 L 503.0 1295.0 L 503.0 1300.0 L 507.0 1307.0 L 507.0 1311.0 L 509.0 1313.0 L 509.0 1316.0 L 510.0 1317.0 L 510.0 1320.0 L 512.0 1323.0 L 512.0 1325.0 L 515.0 1329.0 L 515.0 1334.0 L 516.0 1335.0 L 516.0 1338.0 L 518.0 1341.0 L 518.0 1344.0 L 520.0 1347.0 L 520.0 1350.0 L 524.0 1358.0 L 524.0 1361.0 L 526.0 1364.0 L 526.0 1366.0 L 527.0 1367.0 L 527.0 1370.0 L 529.0 1373.0 L 529.0 1375.0 L 531.0 1377.0 L 531.0 1381.0 L 534.0 1387.0 L 540.0 1390.0 L 604.0 1390.0 L 605.0 1389.0 L 610.0 1389.0 L 613.0 1386.0 L 613.0 1385.0 L 615.0 1383.0 L 615.0 1381.0 L 616.0 1380.0 L 616.0 1376.0 L 618.0 1373.0 L 618.0 1370.0 L 621.0 1364.0 L 622.0 1357.0 L 624.0 1354.0 L 624.0 1352.0 L 626.0 1348.0 L 626.0 1345.0 L 629.0 1339.0 L 629.0 1335.0 L 631.0 1332.0 L 632.0 1325.0 L 634.0 1323.0 L 634.0 1319.0 L 636.0 1317.0 L 636.0 1315.0 L 637.0 1314.0 L 637.0 1310.0 L 639.0 1307.0 L 639.0 1304.0 L 640.0 1303.0 L 641.0 1298.0 L 643.0 1295.0 L 643.0 1292.0 L 645.0 1290.0 L 645.0 1288.0 L 646.0 1287.0 L 646.0 1284.0 L 647.0 1283.0 L 647.0 1278.0 L 648.0 1277.0 L 648.0 1275.0 L 650.0 1272.0 L 650.0 1270.0 L 651.0 1269.0 L 651.0 1267.0 L 653.0 1263.0 L 653.0 1260.0 L 655.0 1256.0 L 656.0 1249.0 L 658.0 1247.0 L 660.0 1241.0 L 663.0 1238.0 L 667.0 1238.0 L 670.0 1241.0 L 673.0 1247.0 L 673.0 1249.0 L 675.0 1253.0 L 675.0 1257.0 L 677.0 1259.0 L 678.0 1266.0 L 680.0 1269.0 L 680.0 1272.0 L 681.0 1273.0 L 682.0 1278.0 L 684.0 1281.0 L 684.0 1283.0 L 685.0 1284.0 L 685.0 1286.0 L 686.0 1287.0 L 686.0 1289.0 L 687.0 1290.0 L 687.0 1292.0 L 688.0 1293.0 L 689.0 1298.0 L 691.0 1300.0 L 691.0 1304.0 L 693.0 1306.0 L 693.0 1309.0 L 694.0 1310.0 L 694.0 1312.0 L 696.0 1316.0 L 696.0 1319.0 L 700.0 1326.0 L 700.0 1328.0 L 701.0 1329.0 L 701.0 1332.0 L 702.0 1333.0 L 702.0 1335.0 L 704.0 1339.0 L 704.0 1342.0 L 707.0 1345.0 L 707.0 1350.0 L 708.0 1351.0 L 708.0 1354.0 L 709.0 1355.0 L 709.0 1357.0 L 711.0 1359.0 L 711.0 1361.0 L 712.0 1362.0 L 712.0 1366.0 L 716.0 1374.0 L 716.0 1376.0 L 717.0 1377.0 L 717.0 1381.0 L 719.0 1383.0 L 719.0 1385.0 L 723.0 1389.0 L 726.0 1389.0 L 727.0 1390.0 L 790.0 1390.0 L 791.0 1389.0 L 795.0 1389.0 L 798.0 1386.0 L 801.0 1380.0 L 801.0 1376.0 L 803.0 1373.0 L 803.0 1371.0 L 804.0 1370.0 L 805.0 1365.0 L 807.0 1362.0 L 807.0 1358.0 L 810.0 1352.0 L 810.0 1350.0 L 812.0 1346.0 L 812.0 1343.0 L 815.0 1337.0 L 815.0 1334.0 L 817.0 1332.0 L 817.0 1329.0 L 820.0 1323.0 L 820.0 1320.0 L 822.0 1317.0 L 822.0 1314.0 L 823.0 1313.0 L 824.0 1308.0 L 826.0 1305.0 L 826.0 1302.0 L 829.0 1296.0 L 829.0 1293.0 L 831.0 1290.0 L 831.0 1286.0 L 832.0 1285.0 L 832.0 1283.0 L 834.0 1281.0 L 834.0 1278.0 L 835.0 1277.0 L 835.0 1275.0 L 836.0 1274.0 L 836.0 1272.0 L 837.0 1271.0 L 837.0 1269.0 L 838.0 1268.0 L 838.0 1266.0 L 839.0 1265.0 L 840.0 1260.0 L 842.0 1257.0 L 842.0 1254.0 L 843.0 1253.0 L 843.0 1251.0 L 845.0 1247.0 L 845.0 1244.0 L 847.0 1242.0 L 847.0 1239.0 L 848.0 1238.0 L 848.0 1236.0 L 850.0 1232.0 L 850.0 1229.0 L 853.0 1224.0 L 853.0 1221.0 L 855.0 1218.0 L 855.0 1215.0 L 856.0 1214.0 L 856.0 1211.0 L 857.0 1210.0 L 857.0 1208.0 L 860.0 1204.0 L 860.0 1201.0 L 862.0 1197.0 L 863.0 1190.0 L 865.0 1187.0 L 866.0 1182.0 L 869.0 1177.0 L 869.0 1173.0 L 871.0 1169.0 L 871.0 1166.0 L 874.0 1161.0 L 874.0 1158.0 L 877.0 1153.0 L 877.0 1151.0 L 878.0 1150.0 L 878.0 1147.0 L 880.0 1144.0 L 880.0 1142.0 L 881.0 1141.0 L 881.0 1138.0 L 882.0 1137.0 L 882.0 1135.0 L 885.0 1129.0 L 885.0 1126.0 L 886.0 1125.0 L 886.0 1120.0 L 884.0 1116.0 L 882.0 1116.0 L 881.0 1115.0 L 839.0 1115.0 L 838.0 1114.0 L 837.0 1115.0 L 830.0 1115.0 L 829.0 1114.0 L 827.0 1114.0 L 826.0 1115.0 L 809.0 1115.0 L 805.0 1117.0 L 805.0 1119.0 L 803.0 1121.0 L 803.0 1127.0 L 800.0 1132.0 L 800.0 1136.0 L 799.0 1137.0 L 799.0 1140.0 L 798.0 1141.0 L 798.0 1143.0 L 797.0 1144.0 L 797.0 1146.0 L 796.0 1147.0 L 796.0 1149.0 L 794.0 1153.0 L 793.0 1160.0 L 791.0 1163.0 L 791.0 1167.0 L 789.0 1169.0 L 789.0 1172.0 L 787.0 1176.0 L 787.0 1181.0 L 785.0 1184.0 L 785.0 1186.0 L 783.0 1190.0 L 783.0 1194.0 L 781.0 1197.0 L 781.0 1201.0 L 780.0 1202.0 L 780.0 1205.0 L 777.0 1211.0 L 777.0 1215.0 L 775.0 1219.0 L 775.0 1222.0 L 774.0 1223.0 L 774.0 1226.0 L 772.0 1230.0 L 771.0 1237.0 L 769.0 1239.0 L 769.0 1243.0 L 768.0 1244.0 L 768.0 1247.0 L 765.0 1253.0 L 765.0 1256.0 L 764.0 1257.0 L 764.0 1261.0 L 762.0 1264.0 L 762.0 1266.0 L 758.0 1269.0 L 754.0 1269.0 L 751.0 1266.0 L 751.0 1263.0 L 750.0 1262.0 L 750.0 1260.0 L 748.0 1256.0 L 748.0 1252.0 L 746.0 1250.0 L 746.0 1247.0 L 744.0 1244.0 L 744.0 1241.0 L 743.0 1240.0 L 743.0 1238.0 L 741.0 1234.0 L 741.0 1230.0 L 740.0 1229.0 L 740.0 1227.0 L 738.0 1225.0 L 737.0 1216.0 L 735.0 1214.0 L 735.0 1211.0 L 734.0 1210.0 L 734.0 1207.0 L 733.0 1206.0 L 733.0 1204.0 L 731.0 1200.0 L 731.0 1197.0 L 728.0 1192.0 L 728.0 1187.0 L 726.0 1184.0 L 726.0 1181.0 L 724.0 1179.0 L 724.0 1175.0 L 722.0 1173.0 L 722.0 1168.0 L 720.0 1166.0 L 720.0 1164.0 L 719.0 1163.0 L 719.0 1158.0 L 718.0 1157.0 L 718.0 1155.0 L 717.0 1154.0 L 716.0 1149.0 L 714.0 1146.0 L 714.0 1144.0 L 712.0 1141.0 L 712.0 1138.0 L 711.0 1137.0 L 711.0 1132.0 L 709.0 1130.0 L 708.0 1125.0 L 706.0 1122.0 L 706.0 1118.0 L 702.0 1115.0 L 673.0 1115.0 L 672.0 1114.0 L 668.0 1114.0 L 667.0 1115.0 L 665.0 1115.0 L 664.0 1114.0 L 662.0 1115.0 L 650.0 1115.0 L 649.0 1114.0 L 646.0 1114.0 L 645.0 1115.0 L 631.0 1115.0 L 627.0 1119.0 L 626.0 1121.0 L 626.0 1123.0 L 624.0 1125.0 L 624.0 1129.0 L 623.0 1130.0 L 623.0 1133.0 L 621.0 1136.0 L 621.0 1139.0 L 620.0 1140.0 L 620.0 1142.0 L 619.0 1143.0 L 619.0 1145.0 L 617.0 1149.0 L 617.0 1152.0 L 616.0 1153.0 L 616.0 1155.0 L 614.0 1159.0 L 614.0 1162.0 L 613.0 1163.0 L 612.0 1168.0 L 610.0 1171.0 L 609.0 1178.0 L 608.0 1179.0 L 608.0 1181.0 L 606.0 1185.0 L 606.0 1188.0 L 605.0 1189.0 L 605.0 1192.0 L 603.0 1195.0 L 603.0 1198.0 L 601.0 1201.0 L 601.0 1204.0 L 599.0 1208.0 L 599.0 1211.0 L 597.0 1213.0 L 597.0 1217.0 L 595.0 1221.0 L 595.0 1224.0 L 593.0 1226.0 L 593.0 1230.0 L 591.0 1233.0 L 591.0 1235.0 L 589.0 1239.0 L 589.0 1244.0 L 588.0 1245.0 L 588.0 1248.0 L 587.0 1249.0 L 587.0 1251.0 L 584.0 1257.0 L 584.0 1261.0 L 583.0 1262.0 L 583.0 1264.0 L 582.0 1266.0 L 577.0 1269.0 L 572.0 1267.0 L 570.0 1264.0 L 570.0 1259.0 L 568.0 1257.0 L 568.0 1251.0 L 567.0 1250.0 L 567.0 1248.0 L 566.0 1247.0 L 566.0 1245.0 L 564.0 1241.0 L 564.0 1238.0 L 562.0 1236.0 L 562.0 1233.0 L 561.0 1232.0 L 561.0 1227.0 L 560.0 1226.0 L 560.0 1223.0 L 557.0 1217.0 L 557.0 1214.0 L 556.0 1213.0 L 556.0 1211.0 L 555.0 1210.0 L 555.0 1207.0 L 553.0 1203.0 L 552.0 1196.0 L 551.0 1195.0 L 550.0 1190.0 L 547.0 1184.0 L 547.0 1179.0 L 545.0 1176.0 L 545.0 1174.0 L 543.0 1170.0 L 543.0 1165.0 L 540.0 1160.0 L 540.0 1156.0 L 538.0 1153.0 L 538.0 1149.0 L 536.0 1146.0 L 536.0 1143.0 L 535.0 1142.0 L 535.0 1140.0 L 533.0 1136.0 L 533.0 1132.0 L 532.0 1131.0 L 532.0 1129.0 L 530.0 1127.0 L 530.0 1121.0 L 528.0 1119.0 L 528.0 1117.0 L 522.0 1114.0 L 515.0 1114.0 L 514.0 1115.0 L 509.0 1115.0 L 508.0 1114.0 L 506.0 1114.0 L 505.0 1115.0 L 503.0 1114.0 L 500.0 1114.0 L 499.0 1115.0 L 487.0 1115.0 L 486.0 1114.0 L 484.0 1114.0 L 483.0 1115.0 L 475.0 1115.0 L 474.0 1114.0 L 473.0 1115.0 L 450.0 1115.0 L 448.0 1116.0 Z
M 1479.0 1131.0 L 1476.0 1130.0 L 1474.0 1128.0 L 1471.0 1127.0 L 1469.0 1125.0 L 1464.0 1123.0 L 1462.0 1121.0 L 1460.0 1121.0 L 1451.0 1116.0 L 1449.0 1116.0 L 1445.0 1114.0 L 1442.0 1114.0 L 1441.0 1113.0 L 1439.0 1113.0 L 1435.0 1111.0 L 1428.0 1111.0 L 1427.0 1110.0 L 1423.0 1110.0 L 1422.0 1109.0 L 1417.0 1109.0 L 1416.0 1108.0 L 1415.0 1109.0 L 1412.0 1109.0 L 1411.0 1108.0 L 1393.0 1108.0 L 1392.0 1109.0 L 1381.0 1109.0 L 1380.0 1110.0 L 1377.0 1110.0 L 1376.0 1111.0 L 1371.0 1111.0 L 1367.0 1113.0 L 1363.0 1113.0 L 1355.0 1117.0 L 1353.0 1117.0 L 1352.0 1118.0 L 1349.0 1118.0 L 1347.0 1120.0 L 1338.0 1124.0 L 1335.0 1127.0 L 1334.0 1127.0 L 1331.0 1130.0 L 1330.0 1130.0 L 1327.0 1133.0 L 1325.0 1134.0 L 1321.0 1134.0 L 1318.0 1131.0 L 1318.0 1125.0 L 1317.0 1124.0 L 1317.0 1118.0 L 1313.0 1115.0 L 1292.0 1115.0 L 1291.0 1114.0 L 1287.0 1114.0 L 1286.0 1115.0 L 1269.0 1115.0 L 1268.0 1114.0 L 1266.0 1115.0 L 1261.0 1115.0 L 1260.0 1114.0 L 1258.0 1115.0 L 1253.0 1115.0 L 1252.0 1114.0 L 1250.0 1114.0 L 1249.0 1115.0 L 1242.0 1115.0 L 1241.0 1116.0 L 1241.0 1117.0 L 1238.0 1121.0 L 1238.0 1473.0 L 1240.0 1477.0 L 1241.0 1477.0 L 1243.0 1479.0 L 1312.0 1479.0 L 1316.0 1476.0 L 1317.0 1474.0 L 1317.0 1472.0 L 1318.0 1471.0 L 1318.0 1468.0 L 1317.0 1467.0 L 1317.0 1463.0 L 1318.0 1462.0 L 1318.0 1457.0 L 1317.0 1456.0 L 1317.0 1443.0 L 1318.0 1442.0 L 1318.0 1425.0 L 1317.0 1424.0 L 1317.0 1420.0 L 1318.0 1419.0 L 1318.0 1415.0 L 1317.0 1414.0 L 1317.0 1401.0 L 1318.0 1400.0 L 1318.0 1374.0 L 1321.0 1371.0 L 1325.0 1371.0 L 1329.0 1374.0 L 1330.0 1374.0 L 1332.0 1376.0 L 1333.0 1376.0 L 1337.0 1380.0 L 1340.0 1381.0 L 1342.0 1383.0 L 1348.0 1386.0 L 1350.0 1386.0 L 1355.0 1389.0 L 1357.0 1389.0 L 1358.0 1390.0 L 1360.0 1390.0 L 1364.0 1392.0 L 1368.0 1392.0 L 1369.0 1393.0 L 1372.0 1393.0 L 1373.0 1394.0 L 1378.0 1394.0 L 1382.0 1396.0 L 1391.0 1396.0 L 1392.0 1397.0 L 1402.0 1397.0 L 1403.0 1396.0 L 1405.0 1396.0 L 1406.0 1397.0 L 1408.0 1397.0 L 1409.0 1396.0 L 1420.0 1396.0 L 1421.0 1395.0 L 1426.0 1395.0 L 1427.0 1394.0 L 1431.0 1394.0 L 1432.0 1393.0 L 1435.0 1393.0 L 1436.0 1392.0 L 1441.0 1392.0 L 1444.0 1390.0 L 1451.0 1389.0 L 1456.0 1386.0 L 1458.0 1386.0 L 1472.0 1379.0 L 1475.0 1376.0 L 1476.0 1376.0 L 1478.0 1374.0 L 1479.0 1374.0 L 1481.0 1372.0 L 1485.0 1370.0 L 1491.0 1364.0 L 1492.0 1364.0 L 1509.0 1346.0 L 1510.0 1343.0 L 1513.0 1341.0 L 1516.0 1335.0 L 1519.0 1332.0 L 1519.0 1330.0 L 1522.0 1326.0 L 1522.0 1324.0 L 1524.0 1322.0 L 1525.0 1320.0 L 1525.0 1318.0 L 1527.0 1316.0 L 1527.0 1313.0 L 1528.0 1312.0 L 1528.0 1310.0 L 1531.0 1305.0 L 1531.0 1302.0 L 1532.0 1301.0 L 1532.0 1299.0 L 1535.0 1293.0 L 1535.0 1288.0 L 1536.0 1287.0 L 1536.0 1283.0 L 1537.0 1282.0 L 1537.0 1277.0 L 1538.0 1276.0 L 1538.0 1261.0 L 1539.0 1260.0 L 1539.0 1245.0 L 1538.0 1244.0 L 1538.0 1232.0 L 1537.0 1231.0 L 1537.0 1225.0 L 1536.0 1224.0 L 1536.0 1221.0 L 1535.0 1220.0 L 1535.0 1215.0 L 1534.0 1214.0 L 1534.0 1210.0 L 1533.0 1209.0 L 1533.0 1207.0 L 1531.0 1203.0 L 1531.0 1200.0 L 1529.0 1198.0 L 1529.0 1195.0 L 1527.0 1192.0 L 1526.0 1187.0 L 1523.0 1184.0 L 1522.0 1182.0 L 1522.0 1180.0 L 1520.0 1178.0 L 1520.0 1176.0 L 1514.0 1168.0 L 1512.0 1163.0 L 1509.0 1160.0 L 1509.0 1159.0 L 1506.0 1156.0 L 1504.0 1155.0 L 1504.0 1154.0 L 1498.0 1148.0 L 1498.0 1147.0 L 1496.0 1145.0 L 1495.0 1145.0 L 1489.0 1139.0 L 1488.0 1139.0 Z
M 1385.0 1180.0 L 1390.0 1180.0 L 1391.0 1181.0 L 1400.0 1181.0 L 1401.0 1182.0 L 1406.0 1182.0 L 1409.0 1184.0 L 1412.0 1184.0 L 1428.0 1192.0 L 1431.0 1195.0 L 1432.0 1195.0 L 1443.0 1206.0 L 1444.0 1209.0 L 1449.0 1215.0 L 1455.0 1227.0 L 1456.0 1236.0 L 1457.0 1237.0 L 1457.0 1240.0 L 1458.0 1241.0 L 1458.0 1249.0 L 1459.0 1250.0 L 1459.0 1263.0 L 1457.0 1266.0 L 1457.0 1270.0 L 1456.0 1271.0 L 1455.0 1278.0 L 1447.0 1294.0 L 1443.0 1298.0 L 1443.0 1300.0 L 1433.0 1310.0 L 1429.0 1312.0 L 1426.0 1315.0 L 1416.0 1320.0 L 1414.0 1320.0 L 1410.0 1322.0 L 1407.0 1322.0 L 1403.0 1324.0 L 1397.0 1324.0 L 1396.0 1325.0 L 1387.0 1325.0 L 1386.0 1324.0 L 1376.0 1324.0 L 1375.0 1323.0 L 1371.0 1323.0 L 1370.0 1322.0 L 1367.0 1322.0 L 1345.0 1311.0 L 1343.0 1309.0 L 1343.0 1308.0 L 1341.0 1307.0 L 1334.0 1300.0 L 1334.0 1299.0 L 1330.0 1295.0 L 1327.0 1289.0 L 1325.0 1287.0 L 1325.0 1284.0 L 1323.0 1282.0 L 1323.0 1280.0 L 1321.0 1277.0 L 1321.0 1273.0 L 1319.0 1270.0 L 1319.0 1264.0 L 1318.0 1263.0 L 1318.0 1242.0 L 1319.0 1241.0 L 1319.0 1235.0 L 1320.0 1234.0 L 1320.0 1231.0 L 1322.0 1228.0 L 1322.0 1225.0 L 1326.0 1217.0 L 1328.0 1215.0 L 1330.0 1211.0 L 1334.0 1207.0 L 1334.0 1205.0 L 1342.0 1197.0 L 1343.0 1197.0 L 1347.0 1193.0 L 1350.0 1192.0 L 1352.0 1190.0 L 1364.0 1184.0 L 1368.0 1184.0 L 1369.0 1183.0 L 1372.0 1183.0 L 1373.0 1182.0 L 1378.0 1182.0 L 1379.0 1181.0 L 1384.0 1181.0 Z
M 931.0 1150.0 L 931.0 1151.0 L 923.0 1159.0 L 921.0 1163.0 L 915.0 1170.0 L 914.0 1173.0 L 912.0 1175.0 L 912.0 1177.0 L 910.0 1179.0 L 908.0 1184.0 L 906.0 1186.0 L 906.0 1188.0 L 905.0 1189.0 L 905.0 1191.0 L 904.0 1193.0 L 902.0 1195.0 L 902.0 1197.0 L 900.0 1201.0 L 900.0 1204.0 L 899.0 1205.0 L 899.0 1209.0 L 897.0 1211.0 L 897.0 1213.0 L 896.0 1214.0 L 896.0 1219.0 L 895.0 1220.0 L 895.0 1225.0 L 894.0 1226.0 L 894.0 1229.0 L 893.0 1230.0 L 893.0 1235.0 L 892.0 1236.0 L 892.0 1267.0 L 893.0 1268.0 L 893.0 1273.0 L 894.0 1274.0 L 894.0 1279.0 L 895.0 1280.0 L 895.0 1286.0 L 896.0 1287.0 L 896.0 1292.0 L 899.0 1296.0 L 899.0 1301.0 L 901.0 1303.0 L 901.0 1307.0 L 903.0 1309.0 L 904.0 1314.0 L 907.0 1318.0 L 909.0 1322.0 L 909.0 1324.0 L 910.0 1326.0 L 913.0 1329.0 L 917.0 1337.0 L 924.0 1345.0 L 924.0 1347.0 L 926.0 1348.0 L 927.0 1350.0 L 929.0 1352.0 L 930.0 1352.0 L 931.0 1354.0 L 935.0 1358.0 L 936.0 1358.0 L 942.0 1364.0 L 943.0 1364.0 L 945.0 1367.0 L 949.0 1369.0 L 953.0 1373.0 L 954.0 1373.0 L 959.0 1377.0 L 975.0 1385.0 L 977.0 1385.0 L 982.0 1388.0 L 984.0 1388.0 L 988.0 1390.0 L 991.0 1390.0 L 995.0 1392.0 L 1001.0 1392.0 L 1004.0 1394.0 L 1009.0 1394.0 L 1010.0 1395.0 L 1017.0 1395.0 L 1018.0 1396.0 L 1041.0 1396.0 L 1042.0 1395.0 L 1050.0 1395.0 L 1051.0 1394.0 L 1057.0 1394.0 L 1060.0 1392.0 L 1066.0 1392.0 L 1067.0 1391.0 L 1069.0 1391.0 L 1070.0 1390.0 L 1073.0 1390.0 L 1076.0 1388.0 L 1078.0 1388.0 L 1083.0 1385.0 L 1085.0 1385.0 L 1087.0 1383.0 L 1094.0 1380.0 L 1096.0 1378.0 L 1100.0 1376.0 L 1103.0 1373.0 L 1107.0 1371.0 L 1111.0 1371.0 L 1114.0 1374.0 L 1114.0 1383.0 L 1116.0 1387.0 L 1118.0 1389.0 L 1122.0 1389.0 L 1123.0 1390.0 L 1157.0 1390.0 L 1158.0 1389.0 L 1160.0 1390.0 L 1183.0 1390.0 L 1187.0 1388.0 L 1189.0 1386.0 L 1190.0 1384.0 L 1190.0 1121.0 L 1188.0 1117.0 L 1187.0 1117.0 L 1185.0 1115.0 L 1180.0 1115.0 L 1179.0 1114.0 L 1178.0 1115.0 L 1150.0 1115.0 L 1149.0 1114.0 L 1146.0 1114.0 L 1145.0 1115.0 L 1135.0 1115.0 L 1134.0 1114.0 L 1130.0 1114.0 L 1129.0 1115.0 L 1119.0 1115.0 L 1114.0 1120.0 L 1114.0 1122.0 L 1113.0 1123.0 L 1113.0 1130.0 L 1110.0 1133.0 L 1106.0 1133.0 L 1104.0 1132.0 L 1101.0 1129.0 L 1098.0 1128.0 L 1095.0 1125.0 L 1092.0 1124.0 L 1089.0 1121.0 L 1079.0 1116.0 L 1075.0 1116.0 L 1070.0 1113.0 L 1067.0 1113.0 L 1063.0 1111.0 L 1059.0 1111.0 L 1058.0 1110.0 L 1052.0 1110.0 L 1051.0 1109.0 L 1046.0 1109.0 L 1045.0 1108.0 L 1011.0 1108.0 L 1010.0 1109.0 L 1005.0 1109.0 L 1004.0 1110.0 L 1001.0 1110.0 L 1000.0 1111.0 L 995.0 1111.0 L 989.0 1114.0 L 985.0 1114.0 L 984.0 1115.0 L 981.0 1115.0 L 970.0 1121.0 L 968.0 1121.0 L 964.0 1123.0 L 961.0 1126.0 L 958.0 1127.0 L 955.0 1130.0 L 954.0 1130.0 L 952.0 1132.0 L 948.0 1134.0 L 946.0 1137.0 L 945.0 1137.0 L 941.0 1141.0 L 940.0 1141.0 Z
M 1033.0 1180.0 L 1042.0 1180.0 L 1043.0 1179.0 L 1046.0 1179.0 L 1047.0 1180.0 L 1058.0 1180.0 L 1062.0 1182.0 L 1065.0 1182.0 L 1066.0 1183.0 L 1071.0 1184.0 L 1081.0 1189.0 L 1083.0 1191.0 L 1088.0 1193.0 L 1092.0 1197.0 L 1093.0 1197.0 L 1094.0 1199.0 L 1096.0 1200.0 L 1099.0 1204.0 L 1101.0 1205.0 L 1101.0 1206.0 L 1107.0 1213.0 L 1107.0 1215.0 L 1109.0 1217.0 L 1109.0 1220.0 L 1111.0 1222.0 L 1111.0 1224.0 L 1112.0 1225.0 L 1112.0 1227.0 L 1113.0 1228.0 L 1113.0 1230.0 L 1115.0 1234.0 L 1115.0 1239.0 L 1116.0 1240.0 L 1116.0 1265.0 L 1115.0 1266.0 L 1115.0 1270.0 L 1114.0 1271.0 L 1114.0 1274.0 L 1112.0 1276.0 L 1112.0 1278.0 L 1111.0 1279.0 L 1111.0 1282.0 L 1108.0 1286.0 L 1107.0 1289.0 L 1105.0 1291.0 L 1105.0 1292.0 L 1103.0 1294.0 L 1101.0 1298.0 L 1096.0 1303.0 L 1096.0 1304.0 L 1094.0 1305.0 L 1090.0 1309.0 L 1089.0 1309.0 L 1085.0 1313.0 L 1073.0 1319.0 L 1071.0 1319.0 L 1070.0 1320.0 L 1068.0 1320.0 L 1067.0 1321.0 L 1065.0 1321.0 L 1061.0 1323.0 L 1058.0 1323.0 L 1057.0 1324.0 L 1034.0 1324.0 L 1033.0 1323.0 L 1024.0 1322.0 L 1015.0 1317.0 L 1013.0 1317.0 L 1005.0 1313.0 L 1003.0 1310.0 L 1000.0 1309.0 L 991.0 1300.0 L 991.0 1299.0 L 984.0 1291.0 L 984.0 1289.0 L 978.0 1278.0 L 978.0 1273.0 L 977.0 1272.0 L 977.0 1270.0 L 976.0 1269.0 L 976.0 1266.0 L 975.0 1265.0 L 975.0 1241.0 L 976.0 1240.0 L 976.0 1233.0 L 978.0 1230.0 L 978.0 1227.0 L 980.0 1224.0 L 981.0 1219.0 L 984.0 1213.0 L 988.0 1209.0 L 989.0 1206.0 L 994.0 1201.0 L 994.0 1200.0 L 998.0 1197.0 L 999.0 1197.0 L 1001.0 1194.0 L 1005.0 1192.0 L 1008.0 1189.0 L 1018.0 1184.0 L 1020.0 1184.0 L 1024.0 1182.0 L 1027.0 1182.0 L 1028.0 1181.0 L 1032.0 1181.0 Z
M 294.0 1109.0 L 293.0 1110.0 L 288.0 1110.0 L 284.0 1112.0 L 280.0 1112.0 L 277.0 1114.0 L 272.0 1114.0 L 268.0 1116.0 L 265.0 1116.0 L 264.0 1117.0 L 262.0 1117.0 L 252.0 1122.0 L 250.0 1124.0 L 243.0 1127.0 L 238.0 1132.0 L 235.0 1133.0 L 224.0 1144.0 L 224.0 1145.0 L 216.0 1154.0 L 216.0 1156.0 L 214.0 1158.0 L 212.0 1163.0 L 210.0 1165.0 L 210.0 1168.0 L 207.0 1173.0 L 207.0 1175.0 L 206.0 1176.0 L 206.0 1180.0 L 205.0 1181.0 L 205.0 1186.0 L 204.0 1187.0 L 204.0 1211.0 L 205.0 1212.0 L 205.0 1215.0 L 206.0 1216.0 L 206.0 1220.0 L 208.0 1223.0 L 208.0 1226.0 L 210.0 1228.0 L 210.0 1230.0 L 212.0 1234.0 L 214.0 1236.0 L 216.0 1240.0 L 219.0 1243.0 L 219.0 1244.0 L 227.0 1252.0 L 228.0 1252.0 L 236.0 1259.0 L 239.0 1260.0 L 241.0 1262.0 L 246.0 1264.0 L 248.0 1266.0 L 252.0 1268.0 L 254.0 1268.0 L 257.0 1270.0 L 262.0 1271.0 L 265.0 1273.0 L 267.0 1273.0 L 268.0 1274.0 L 271.0 1274.0 L 274.0 1276.0 L 278.0 1276.0 L 281.0 1278.0 L 285.0 1278.0 L 286.0 1279.0 L 289.0 1279.0 L 290.0 1280.0 L 293.0 1280.0 L 294.0 1281.0 L 297.0 1281.0 L 298.0 1282.0 L 301.0 1282.0 L 302.0 1283.0 L 306.0 1283.0 L 307.0 1284.0 L 310.0 1284.0 L 314.0 1286.0 L 319.0 1286.0 L 320.0 1287.0 L 323.0 1287.0 L 324.0 1288.0 L 329.0 1289.0 L 334.0 1292.0 L 336.0 1292.0 L 342.0 1295.0 L 349.0 1301.0 L 351.0 1305.0 L 351.0 1312.0 L 350.0 1313.0 L 349.0 1318.0 L 344.0 1323.0 L 336.0 1327.0 L 333.0 1327.0 L 329.0 1329.0 L 323.0 1329.0 L 322.0 1330.0 L 310.0 1330.0 L 309.0 1329.0 L 300.0 1329.0 L 299.0 1328.0 L 295.0 1328.0 L 291.0 1326.0 L 287.0 1326.0 L 286.0 1325.0 L 284.0 1325.0 L 283.0 1324.0 L 281.0 1324.0 L 277.0 1322.0 L 274.0 1322.0 L 261.0 1315.0 L 259.0 1315.0 L 255.0 1313.0 L 253.0 1311.0 L 250.0 1310.0 L 247.0 1307.0 L 242.0 1305.0 L 237.0 1300.0 L 233.0 1298.0 L 227.0 1298.0 L 222.0 1302.0 L 221.0 1305.0 L 216.0 1311.0 L 215.0 1314.0 L 213.0 1316.0 L 211.0 1321.0 L 208.0 1324.0 L 207.0 1327.0 L 204.0 1330.0 L 204.0 1332.0 L 201.0 1335.0 L 199.0 1339.0 L 196.0 1342.0 L 196.0 1344.0 L 195.0 1345.0 L 195.0 1347.0 L 193.0 1349.0 L 193.0 1351.0 L 195.0 1353.0 L 195.0 1355.0 L 200.0 1360.0 L 203.0 1361.0 L 215.0 1370.0 L 220.0 1372.0 L 222.0 1374.0 L 224.0 1374.0 L 228.0 1376.0 L 230.0 1378.0 L 234.0 1380.0 L 236.0 1380.0 L 237.0 1381.0 L 242.0 1382.0 L 247.0 1385.0 L 252.0 1386.0 L 255.0 1388.0 L 259.0 1388.0 L 260.0 1389.0 L 263.0 1389.0 L 264.0 1390.0 L 267.0 1390.0 L 268.0 1391.0 L 273.0 1391.0 L 274.0 1392.0 L 278.0 1392.0 L 279.0 1393.0 L 285.0 1393.0 L 286.0 1394.0 L 294.0 1394.0 L 295.0 1395.0 L 329.0 1395.0 L 330.0 1394.0 L 338.0 1394.0 L 339.0 1393.0 L 343.0 1393.0 L 344.0 1392.0 L 350.0 1392.0 L 354.0 1390.0 L 359.0 1390.0 L 362.0 1388.0 L 364.0 1388.0 L 365.0 1387.0 L 368.0 1387.0 L 371.0 1385.0 L 373.0 1385.0 L 376.0 1383.0 L 378.0 1383.0 L 390.0 1377.0 L 392.0 1375.0 L 393.0 1375.0 L 395.0 1373.0 L 399.0 1371.0 L 403.0 1367.0 L 404.0 1367.0 L 417.0 1353.0 L 418.0 1350.0 L 422.0 1345.0 L 428.0 1333.0 L 428.0 1329.0 L 430.0 1326.0 L 430.0 1321.0 L 432.0 1318.0 L 432.0 1309.0 L 433.0 1308.0 L 432.0 1306.0 L 432.0 1289.0 L 429.0 1283.0 L 428.0 1276.0 L 426.0 1274.0 L 424.0 1268.0 L 422.0 1266.0 L 421.0 1263.0 L 418.0 1260.0 L 418.0 1259.0 L 408.0 1249.0 L 407.0 1249.0 L 401.0 1243.0 L 400.0 1243.0 L 398.0 1241.0 L 393.0 1239.0 L 391.0 1237.0 L 375.0 1229.0 L 370.0 1228.0 L 367.0 1226.0 L 362.0 1225.0 L 359.0 1223.0 L 356.0 1223.0 L 352.0 1221.0 L 349.0 1221.0 L 348.0 1220.0 L 345.0 1220.0 L 344.0 1219.0 L 341.0 1219.0 L 340.0 1218.0 L 331.0 1217.0 L 330.0 1216.0 L 328.0 1216.0 L 324.0 1214.0 L 320.0 1214.0 L 316.0 1212.0 L 313.0 1212.0 L 312.0 1211.0 L 308.0 1211.0 L 302.0 1208.0 L 300.0 1208.0 L 292.0 1204.0 L 287.0 1199.0 L 287.0 1197.0 L 286.0 1196.0 L 286.0 1187.0 L 288.0 1183.0 L 291.0 1180.0 L 292.0 1180.0 L 294.0 1178.0 L 302.0 1174.0 L 308.0 1174.0 L 309.0 1173.0 L 313.0 1173.0 L 314.0 1172.0 L 326.0 1172.0 L 327.0 1173.0 L 334.0 1173.0 L 335.0 1174.0 L 340.0 1174.0 L 341.0 1175.0 L 344.0 1175.0 L 348.0 1177.0 L 352.0 1177.0 L 355.0 1179.0 L 358.0 1179.0 L 361.0 1181.0 L 363.0 1181.0 L 377.0 1188.0 L 379.0 1190.0 L 385.0 1193.0 L 388.0 1196.0 L 390.0 1196.0 L 391.0 1197.0 L 396.0 1197.0 L 402.0 1190.0 L 402.0 1188.0 L 405.0 1185.0 L 406.0 1182.0 L 409.0 1179.0 L 414.0 1169.0 L 417.0 1166.0 L 419.0 1161.0 L 422.0 1158.0 L 423.0 1155.0 L 425.0 1153.0 L 426.0 1151.0 L 426.0 1145.0 L 425.0 1143.0 L 420.0 1138.0 L 417.0 1137.0 L 414.0 1134.0 L 405.0 1130.0 L 402.0 1127.0 L 400.0 1127.0 L 392.0 1122.0 L 390.0 1122.0 L 389.0 1121.0 L 386.0 1121.0 L 383.0 1119.0 L 381.0 1119.0 L 373.0 1115.0 L 368.0 1115.0 L 367.0 1114.0 L 364.0 1114.0 L 363.0 1113.0 L 361.0 1113.0 L 360.0 1112.0 L 357.0 1112.0 L 356.0 1111.0 L 351.0 1111.0 L 350.0 1110.0 L 344.0 1110.0 L 343.0 1109.0 L 329.0 1109.0 L 328.0 1108.0 L 307.0 1108.0 L 306.0 1109.0 L 299.0 1109.0 L 298.0 1110.0 L 296.0 1110.0 Z
M 1601.0 216.0 L 1599.0 214.0 L 1598.0 211.0 L 1596.0 209.0 L 1596.0 207.0 L 1594.0 205.0 L 1594.0 204.0 L 1581.0 189.0 L 1580.0 189.0 L 1576.0 185.0 L 1571.0 183.0 L 1567.0 179.0 L 1559.0 175.0 L 1557.0 175.0 L 1554.0 173.0 L 1551.0 173.0 L 1547.0 171.0 L 1542.0 171.0 L 1541.0 170.0 L 1537.0 170.0 L 1536.0 169.0 L 1503.0 169.0 L 1499.0 167.0 L 1496.0 164.0 L 1496.0 160.0 L 1495.0 159.0 L 1495.0 151.0 L 1496.0 150.0 L 1496.0 144.0 L 1495.0 143.0 L 1495.0 138.0 L 1496.0 137.0 L 1496.0 134.0 L 1495.0 133.0 L 1495.0 127.0 L 1494.0 126.0 L 1494.0 120.0 L 1493.0 119.0 L 1493.0 116.0 L 1490.0 112.0 L 1490.0 107.0 L 1489.0 106.0 L 1488.0 101.0 L 1485.0 98.0 L 1485.0 96.0 L 1482.0 93.0 L 1482.0 92.0 L 1480.0 90.0 L 1478.0 86.0 L 1463.0 71.0 L 1462.0 71.0 L 1457.0 67.0 L 1445.0 61.0 L 1443.0 61.0 L 1442.0 60.0 L 1440.0 60.0 L 1436.0 58.0 L 1433.0 58.0 L 1432.0 57.0 L 1423.0 56.0 L 1422.0 55.0 L 1397.0 55.0 L 1396.0 56.0 L 1387.0 57.0 L 1383.0 59.0 L 1378.0 59.0 L 1375.0 61.0 L 1372.0 61.0 L 1370.0 63.0 L 1366.0 65.0 L 1364.0 65.0 L 1361.0 67.0 L 1359.0 67.0 L 1348.0 75.0 L 1343.0 77.0 L 1337.0 83.0 L 1333.0 85.0 L 1325.0 92.0 L 1311.0 99.0 L 1299.0 99.0 L 1298.0 98.0 L 1296.0 98.0 L 1292.0 96.0 L 1289.0 93.0 L 1288.0 93.0 L 1283.0 88.0 L 1283.0 87.0 L 1280.0 85.0 L 1280.0 84.0 L 1269.0 72.0 L 1269.0 71.0 L 1267.0 70.0 L 1262.0 65.0 L 1261.0 65.0 L 1258.0 61.0 L 1257.0 61.0 L 1255.0 59.0 L 1251.0 57.0 L 1248.0 54.0 L 1232.0 46.0 L 1230.0 46.0 L 1229.0 45.0 L 1225.0 45.0 L 1222.0 43.0 L 1219.0 43.0 L 1218.0 42.0 L 1214.0 42.0 L 1213.0 41.0 L 1203.0 41.0 L 1202.0 40.0 L 1191.0 40.0 L 1190.0 41.0 L 1182.0 41.0 L 1181.0 42.0 L 1175.0 42.0 L 1174.0 43.0 L 1170.0 43.0 L 1169.0 44.0 L 1167.0 44.0 L 1166.0 45.0 L 1164.0 45.0 L 1163.0 46.0 L 1158.0 47.0 L 1144.0 54.0 L 1138.0 59.0 L 1135.0 60.0 L 1123.0 71.0 L 1123.0 72.0 L 1118.0 77.0 L 1117.0 80.0 L 1114.0 82.0 L 1113.0 85.0 L 1111.0 87.0 L 1110.0 90.0 L 1106.0 95.0 L 1106.0 97.0 L 1102.0 103.0 L 1102.0 105.0 L 1100.0 109.0 L 1100.0 112.0 L 1099.0 113.0 L 1099.0 115.0 L 1098.0 116.0 L 1098.0 118.0 L 1097.0 119.0 L 1096.0 124.0 L 1094.0 127.0 L 1094.0 130.0 L 1093.0 131.0 L 1093.0 137.0 L 1092.0 138.0 L 1092.0 141.0 L 1091.0 142.0 L 1091.0 147.0 L 1089.0 150.0 L 1089.0 152.0 L 1087.0 154.0 L 1087.0 156.0 L 1083.0 164.0 L 1083.0 166.0 L 1081.0 168.0 L 1081.0 169.0 L 1079.0 171.0 L 1077.0 175.0 L 1075.0 176.0 L 1071.0 180.0 L 1065.0 183.0 L 1063.0 183.0 L 1059.0 185.0 L 1056.0 185.0 L 1055.0 184.0 L 1052.0 184.0 L 1051.0 183.0 L 1048.0 183.0 L 1047.0 182.0 L 1045.0 182.0 L 1039.0 179.0 L 1037.0 177.0 L 1028.0 173.0 L 1026.0 171.0 L 1016.0 166.0 L 1014.0 166.0 L 1013.0 165.0 L 1011.0 165.0 L 1010.0 164.0 L 1008.0 164.0 L 1004.0 162.0 L 1001.0 162.0 L 1000.0 161.0 L 995.0 161.0 L 991.0 159.0 L 983.0 159.0 L 982.0 158.0 L 964.0 158.0 L 963.0 159.0 L 957.0 159.0 L 956.0 160.0 L 951.0 160.0 L 950.0 161.0 L 946.0 161.0 L 943.0 163.0 L 939.0 163.0 L 933.0 166.0 L 931.0 166.0 L 925.0 169.0 L 923.0 171.0 L 918.0 173.0 L 915.0 176.0 L 912.0 177.0 L 900.0 188.0 L 899.0 188.0 L 894.0 193.0 L 894.0 194.0 L 890.0 198.0 L 888.0 202.0 L 885.0 205.0 L 885.0 207.0 L 883.0 209.0 L 883.0 211.0 L 881.0 213.0 L 880.0 216.0 L 878.0 218.0 L 878.0 220.0 L 877.0 221.0 L 877.0 223.0 L 876.0 224.0 L 876.0 226.0 L 875.0 227.0 L 875.0 229.0 L 874.0 230.0 L 874.0 232.0 L 872.0 236.0 L 872.0 240.0 L 871.0 241.0 L 871.0 250.0 L 870.0 251.0 L 870.0 264.0 L 871.0 265.0 L 871.0 273.0 L 872.0 274.0 L 872.0 280.0 L 873.0 281.0 L 873.0 285.0 L 874.0 286.0 L 874.0 291.0 L 875.0 292.0 L 875.0 297.0 L 876.0 298.0 L 876.0 308.0 L 875.0 309.0 L 875.0 313.0 L 874.0 314.0 L 874.0 316.0 L 872.0 320.0 L 866.0 325.0 L 858.0 329.0 L 849.0 329.0 L 846.0 327.0 L 843.0 327.0 L 840.0 325.0 L 836.0 325.0 L 835.0 324.0 L 832.0 324.0 L 831.0 323.0 L 829.0 323.0 L 828.0 322.0 L 825.0 322.0 L 824.0 321.0 L 817.0 321.0 L 816.0 320.0 L 813.0 320.0 L 812.0 319.0 L 793.0 319.0 L 792.0 320.0 L 789.0 320.0 L 788.0 321.0 L 782.0 321.0 L 779.0 323.0 L 776.0 323.0 L 773.0 325.0 L 771.0 325.0 L 767.0 327.0 L 765.0 329.0 L 762.0 330.0 L 760.0 332.0 L 759.0 332.0 L 754.0 337.0 L 753.0 337.0 L 749.0 341.0 L 749.0 342.0 L 746.0 344.0 L 746.0 346.0 L 741.0 351.0 L 739.0 355.0 L 739.0 357.0 L 737.0 359.0 L 737.0 361.0 L 735.0 363.0 L 735.0 365.0 L 733.0 369.0 L 733.0 372.0 L 732.0 373.0 L 732.0 377.0 L 731.0 378.0 L 731.0 387.0 L 730.0 388.0 L 730.0 396.0 L 731.0 397.0 L 731.0 406.0 L 732.0 407.0 L 732.0 412.0 L 733.0 413.0 L 733.0 416.0 L 734.0 417.0 L 734.0 421.0 L 735.0 422.0 L 735.0 425.0 L 736.0 426.0 L 736.0 429.0 L 737.0 430.0 L 737.0 446.0 L 736.0 447.0 L 736.0 452.0 L 735.0 453.0 L 735.0 455.0 L 732.0 458.0 L 732.0 459.0 L 727.0 464.0 L 721.0 467.0 L 717.0 467.0 L 715.0 468.0 L 714.0 467.0 L 705.0 467.0 L 704.0 466.0 L 697.0 465.0 L 696.0 464.0 L 694.0 464.0 L 693.0 463.0 L 691.0 463.0 L 687.0 461.0 L 683.0 461.0 L 679.0 459.0 L 672.0 459.0 L 671.0 458.0 L 650.0 458.0 L 649.0 459.0 L 642.0 459.0 L 641.0 460.0 L 638.0 460.0 L 635.0 462.0 L 632.0 462.0 L 624.0 466.0 L 622.0 468.0 L 617.0 470.0 L 614.0 473.0 L 613.0 473.0 L 606.0 479.0 L 606.0 480.0 L 596.0 491.0 L 595.0 496.0 L 591.0 500.0 L 589.0 504.0 L 589.0 506.0 L 588.0 507.0 L 587.0 512.0 L 584.0 518.0 L 584.0 523.0 L 583.0 524.0 L 583.0 527.0 L 582.0 528.0 L 582.0 533.0 L 581.0 534.0 L 581.0 546.0 L 580.0 547.0 L 580.0 551.0 L 579.0 552.0 L 579.0 557.0 L 578.0 558.0 L 578.0 561.0 L 575.0 566.0 L 575.0 569.0 L 572.0 572.0 L 572.0 575.0 L 567.0 581.0 L 567.0 582.0 L 564.0 585.0 L 564.0 586.0 L 560.0 590.0 L 560.0 591.0 L 556.0 595.0 L 552.0 597.0 L 549.0 600.0 L 541.0 604.0 L 536.0 604.0 L 535.0 605.0 L 532.0 605.0 L 531.0 604.0 L 527.0 604.0 L 523.0 602.0 L 516.0 596.0 L 512.0 594.0 L 506.0 589.0 L 503.0 588.0 L 501.0 586.0 L 499.0 586.0 L 491.0 582.0 L 488.0 582.0 L 487.0 581.0 L 484.0 581.0 L 483.0 580.0 L 468.0 580.0 L 467.0 581.0 L 461.0 581.0 L 460.0 582.0 L 457.0 582.0 L 456.0 583.0 L 454.0 583.0 L 449.0 586.0 L 447.0 586.0 L 443.0 588.0 L 440.0 591.0 L 437.0 592.0 L 433.0 596.0 L 432.0 596.0 L 428.0 600.0 L 428.0 601.0 L 426.0 602.0 L 422.0 606.0 L 422.0 607.0 L 418.0 611.0 L 418.0 612.0 L 413.0 618.0 L 413.0 619.0 L 408.0 624.0 L 407.0 627.0 L 400.0 634.0 L 399.0 634.0 L 397.0 636.0 L 395.0 640.0 L 393.0 641.0 L 389.0 645.0 L 388.0 645.0 L 386.0 648.0 L 383.0 649.0 L 380.0 652.0 L 377.0 653.0 L 373.0 657.0 L 369.0 659.0 L 367.0 659.0 L 365.0 661.0 L 361.0 663.0 L 359.0 663.0 L 356.0 665.0 L 354.0 665.0 L 351.0 667.0 L 349.0 667.0 L 348.0 668.0 L 346.0 668.0 L 345.0 669.0 L 343.0 669.0 L 339.0 671.0 L 335.0 671.0 L 331.0 673.0 L 326.0 673.0 L 325.0 674.0 L 321.0 674.0 L 320.0 675.0 L 285.0 675.0 L 284.0 674.0 L 280.0 674.0 L 279.0 673.0 L 274.0 673.0 L 271.0 671.0 L 267.0 671.0 L 263.0 669.0 L 260.0 669.0 L 257.0 667.0 L 254.0 667.0 L 251.0 665.0 L 249.0 665.0 L 238.0 659.0 L 235.0 659.0 L 231.0 657.0 L 229.0 655.0 L 226.0 654.0 L 224.0 652.0 L 222.0 652.0 L 218.0 650.0 L 206.0 641.0 L 201.0 639.0 L 198.0 636.0 L 193.0 634.0 L 189.0 630.0 L 188.0 630.0 L 183.0 626.0 L 180.0 625.0 L 174.0 620.0 L 163.0 615.0 L 161.0 613.0 L 157.0 611.0 L 155.0 611.0 L 154.0 610.0 L 149.0 609.0 L 146.0 607.0 L 144.0 607.0 L 143.0 606.0 L 141.0 606.0 L 137.0 604.0 L 132.0 604.0 L 131.0 603.0 L 124.0 603.0 L 123.0 602.0 L 110.0 602.0 L 109.0 603.0 L 102.0 603.0 L 101.0 604.0 L 96.0 604.0 L 93.0 606.0 L 90.0 606.0 L 76.0 613.0 L 72.0 617.0 L 69.0 618.0 L 65.0 622.0 L 65.0 623.0 L 57.0 631.0 L 56.0 634.0 L 54.0 636.0 L 53.0 639.0 L 51.0 641.0 L 51.0 643.0 L 49.0 645.0 L 48.0 647.0 L 48.0 649.0 L 46.0 651.0 L 46.0 653.0 L 45.0 654.0 L 45.0 658.0 L 43.0 662.0 L 43.0 665.0 L 42.0 666.0 L 42.0 671.0 L 41.0 672.0 L 41.0 681.0 L 40.0 682.0 L 40.0 691.0 L 41.0 692.0 L 41.0 706.0 L 42.0 707.0 L 42.0 712.0 L 43.0 713.0 L 43.0 717.0 L 45.0 721.0 L 45.0 724.0 L 46.0 725.0 L 46.0 728.0 L 47.0 729.0 L 47.0 732.0 L 48.0 733.0 L 48.0 735.0 L 51.0 738.0 L 51.0 744.0 L 53.0 746.0 L 53.0 749.0 L 57.0 757.0 L 59.0 759.0 L 63.0 768.0 L 65.0 770.0 L 66.0 773.0 L 71.0 779.0 L 71.0 781.0 L 75.0 785.0 L 77.0 789.0 L 82.0 794.0 L 82.0 795.0 L 89.0 803.0 L 89.0 804.0 L 96.0 811.0 L 96.0 812.0 L 106.0 822.0 L 107.0 822.0 L 109.0 825.0 L 110.0 825.0 L 117.0 832.0 L 118.0 832.0 L 119.0 834.0 L 121.0 836.0 L 122.0 836.0 L 124.0 839.0 L 125.0 839.0 L 128.0 842.0 L 129.0 842.0 L 134.0 847.0 L 135.0 847.0 L 138.0 850.0 L 139.0 850.0 L 144.0 855.0 L 148.0 857.0 L 153.0 862.0 L 157.0 864.0 L 161.0 868.0 L 167.0 871.0 L 175.0 878.0 L 180.0 880.0 L 184.0 884.0 L 185.0 884.0 L 187.0 886.0 L 188.0 886.0 L 190.0 888.0 L 191.0 888.0 L 202.0 896.0 L 209.0 899.0 L 211.0 901.0 L 217.0 904.0 L 222.0 908.0 L 233.0 913.0 L 235.0 915.0 L 247.0 921.0 L 249.0 923.0 L 251.0 923.0 L 255.0 925.0 L 257.0 927.0 L 285.0 941.0 L 287.0 941.0 L 292.0 944.0 L 294.0 944.0 L 312.0 953.0 L 314.0 953.0 L 320.0 956.0 L 322.0 956.0 L 336.0 963.0 L 338.0 963.0 L 341.0 965.0 L 346.0 966.0 L 349.0 968.0 L 351.0 968.0 L 352.0 969.0 L 354.0 969.0 L 358.0 971.0 L 361.0 971.0 L 366.0 974.0 L 368.0 974.0 L 369.0 975.0 L 371.0 975.0 L 372.0 976.0 L 374.0 976.0 L 375.0 977.0 L 377.0 977.0 L 378.0 978.0 L 380.0 978.0 L 381.0 979.0 L 386.0 980.0 L 389.0 982.0 L 392.0 982.0 L 393.0 983.0 L 395.0 983.0 L 399.0 985.0 L 402.0 985.0 L 408.0 988.0 L 412.0 988.0 L 415.0 990.0 L 418.0 990.0 L 422.0 992.0 L 426.0 992.0 L 429.0 994.0 L 433.0 994.0 L 436.0 996.0 L 440.0 996.0 L 444.0 998.0 L 448.0 998.0 L 451.0 1000.0 L 455.0 1000.0 L 458.0 1002.0 L 462.0 1002.0 L 463.0 1003.0 L 466.0 1003.0 L 467.0 1004.0 L 471.0 1004.0 L 475.0 1006.0 L 480.0 1006.0 L 481.0 1007.0 L 484.0 1007.0 L 485.0 1008.0 L 490.0 1008.0 L 494.0 1010.0 L 499.0 1010.0 L 500.0 1011.0 L 503.0 1011.0 L 504.0 1012.0 L 509.0 1012.0 L 510.0 1013.0 L 514.0 1013.0 L 515.0 1014.0 L 519.0 1014.0 L 520.0 1015.0 L 524.0 1015.0 L 525.0 1016.0 L 530.0 1016.0 L 531.0 1017.0 L 535.0 1017.0 L 536.0 1018.0 L 542.0 1018.0 L 543.0 1019.0 L 547.0 1019.0 L 548.0 1020.0 L 555.0 1020.0 L 556.0 1021.0 L 560.0 1021.0 L 561.0 1022.0 L 568.0 1022.0 L 569.0 1023.0 L 576.0 1023.0 L 577.0 1024.0 L 587.0 1024.0 L 588.0 1025.0 L 593.0 1025.0 L 594.0 1026.0 L 605.0 1026.0 L 606.0 1027.0 L 614.0 1027.0 L 615.0 1028.0 L 626.0 1028.0 L 627.0 1029.0 L 644.0 1029.0 L 645.0 1030.0 L 661.0 1030.0 L 662.0 1031.0 L 749.0 1031.0 L 750.0 1030.0 L 773.0 1030.0 L 774.0 1029.0 L 793.0 1029.0 L 794.0 1028.0 L 802.0 1028.0 L 803.0 1027.0 L 812.0 1027.0 L 813.0 1026.0 L 824.0 1026.0 L 825.0 1025.0 L 828.0 1025.0 L 829.0 1024.0 L 841.0 1024.0 L 842.0 1023.0 L 845.0 1023.0 L 846.0 1022.0 L 855.0 1022.0 L 856.0 1021.0 L 859.0 1021.0 L 860.0 1020.0 L 867.0 1020.0 L 868.0 1019.0 L 872.0 1019.0 L 873.0 1018.0 L 880.0 1018.0 L 881.0 1017.0 L 884.0 1017.0 L 885.0 1016.0 L 891.0 1016.0 L 895.0 1014.0 L 901.0 1014.0 L 902.0 1013.0 L 905.0 1013.0 L 906.0 1012.0 L 910.0 1012.0 L 911.0 1011.0 L 920.0 1010.0 L 924.0 1008.0 L 930.0 1008.0 L 933.0 1006.0 L 939.0 1006.0 L 942.0 1004.0 L 946.0 1004.0 L 950.0 1002.0 L 954.0 1002.0 L 958.0 1000.0 L 961.0 1000.0 L 964.0 998.0 L 969.0 998.0 L 972.0 996.0 L 976.0 996.0 L 979.0 994.0 L 983.0 994.0 L 986.0 992.0 L 989.0 992.0 L 992.0 990.0 L 995.0 990.0 L 999.0 988.0 L 1002.0 988.0 L 1005.0 986.0 L 1008.0 986.0 L 1011.0 984.0 L 1013.0 984.0 L 1014.0 983.0 L 1016.0 983.0 L 1017.0 982.0 L 1022.0 981.0 L 1025.0 979.0 L 1030.0 978.0 L 1033.0 976.0 L 1036.0 976.0 L 1039.0 974.0 L 1044.0 973.0 L 1056.0 967.0 L 1058.0 967.0 L 1061.0 965.0 L 1066.0 964.0 L 1073.0 960.0 L 1075.0 960.0 L 1077.0 958.0 L 1081.0 956.0 L 1086.0 955.0 L 1090.0 952.0 L 1096.0 949.0 L 1098.0 949.0 L 1110.0 943.0 L 1112.0 941.0 L 1116.0 939.0 L 1118.0 939.0 L 1123.0 935.0 L 1127.0 933.0 L 1129.0 933.0 L 1134.0 929.0 L 1143.0 925.0 L 1149.0 920.0 L 1154.0 918.0 L 1159.0 914.0 L 1162.0 913.0 L 1165.0 910.0 L 1166.0 910.0 L 1171.0 906.0 L 1174.0 905.0 L 1177.0 902.0 L 1181.0 900.0 L 1189.0 893.0 L 1195.0 890.0 L 1200.0 885.0 L 1201.0 885.0 L 1207.0 880.0 L 1208.0 880.0 L 1210.0 877.0 L 1214.0 875.0 L 1215.0 873.0 L 1217.0 872.0 L 1222.0 867.0 L 1223.0 867.0 L 1225.0 864.0 L 1229.0 862.0 L 1230.0 860.0 L 1235.0 855.0 L 1236.0 855.0 L 1249.0 842.0 L 1250.0 842.0 L 1251.0 840.0 L 1256.0 835.0 L 1256.0 834.0 L 1263.0 828.0 L 1263.0 827.0 L 1270.0 819.0 L 1270.0 818.0 L 1277.0 811.0 L 1279.0 807.0 L 1282.0 804.0 L 1282.0 802.0 L 1288.0 796.0 L 1288.0 795.0 L 1293.0 789.0 L 1293.0 788.0 L 1298.0 782.0 L 1298.0 781.0 L 1300.0 780.0 L 1304.0 776.0 L 1304.0 775.0 L 1311.0 769.0 L 1312.0 767.0 L 1313.0 767.0 L 1316.0 764.0 L 1317.0 764.0 L 1321.0 760.0 L 1322.0 760.0 L 1324.0 758.0 L 1340.0 750.0 L 1343.0 750.0 L 1347.0 748.0 L 1352.0 748.0 L 1353.0 747.0 L 1358.0 747.0 L 1359.0 746.0 L 1378.0 746.0 L 1379.0 745.0 L 1382.0 745.0 L 1383.0 744.0 L 1388.0 744.0 L 1391.0 742.0 L 1395.0 742.0 L 1396.0 741.0 L 1401.0 740.0 L 1413.0 734.0 L 1419.0 729.0 L 1420.0 729.0 L 1424.0 725.0 L 1425.0 725.0 L 1429.0 721.0 L 1430.0 721.0 L 1431.0 719.0 L 1434.0 716.0 L 1434.0 715.0 L 1442.0 706.0 L 1442.0 704.0 L 1445.0 701.0 L 1446.0 699.0 L 1446.0 697.0 L 1448.0 695.0 L 1448.0 692.0 L 1450.0 690.0 L 1450.0 686.0 L 1452.0 684.0 L 1452.0 679.0 L 1453.0 678.0 L 1453.0 675.0 L 1454.0 674.0 L 1454.0 665.0 L 1455.0 664.0 L 1455.0 650.0 L 1454.0 649.0 L 1454.0 645.0 L 1453.0 644.0 L 1453.0 639.0 L 1450.0 634.0 L 1450.0 632.0 L 1446.0 624.0 L 1446.0 621.0 L 1442.0 617.0 L 1439.0 610.0 L 1433.0 602.0 L 1433.0 600.0 L 1431.0 597.0 L 1431.0 594.0 L 1430.0 593.0 L 1430.0 577.0 L 1431.0 576.0 L 1431.0 573.0 L 1432.0 572.0 L 1432.0 570.0 L 1435.0 567.0 L 1437.0 563.0 L 1443.0 557.0 L 1444.0 557.0 L 1446.0 555.0 L 1452.0 552.0 L 1454.0 552.0 L 1458.0 550.0 L 1463.0 550.0 L 1464.0 549.0 L 1497.0 549.0 L 1498.0 548.0 L 1504.0 548.0 L 1505.0 547.0 L 1514.0 546.0 L 1522.0 542.0 L 1525.0 542.0 L 1535.0 537.0 L 1537.0 535.0 L 1540.0 534.0 L 1547.0 528.0 L 1551.0 526.0 L 1552.0 524.0 L 1555.0 521.0 L 1556.0 521.0 L 1559.0 518.0 L 1560.0 516.0 L 1561.0 516.0 L 1563.0 514.0 L 1564.0 511.0 L 1568.0 507.0 L 1568.0 505.0 L 1573.0 499.0 L 1573.0 497.0 L 1575.0 495.0 L 1577.0 491.0 L 1578.0 486.0 L 1582.0 478.0 L 1582.0 473.0 L 1583.0 472.0 L 1583.0 469.0 L 1584.0 468.0 L 1584.0 462.0 L 1585.0 461.0 L 1585.0 442.0 L 1584.0 441.0 L 1584.0 437.0 L 1583.0 436.0 L 1583.0 430.0 L 1582.0 429.0 L 1582.0 426.0 L 1578.0 419.0 L 1578.0 416.0 L 1577.0 414.0 L 1574.0 411.0 L 1573.0 409.0 L 1573.0 407.0 L 1568.0 402.0 L 1566.0 398.0 L 1563.0 395.0 L 1562.0 395.0 L 1553.0 386.0 L 1545.0 382.0 L 1540.0 378.0 L 1529.0 373.0 L 1522.0 367.0 L 1522.0 365.0 L 1519.0 359.0 L 1519.0 355.0 L 1522.0 349.0 L 1529.0 342.0 L 1535.0 339.0 L 1537.0 339.0 L 1540.0 337.0 L 1542.0 337.0 L 1547.0 334.0 L 1552.0 333.0 L 1564.0 327.0 L 1566.0 325.0 L 1567.0 325.0 L 1569.0 323.0 L 1570.0 323.0 L 1572.0 321.0 L 1573.0 321.0 L 1575.0 319.0 L 1579.0 317.0 L 1597.0 296.0 L 1597.0 294.0 L 1600.0 289.0 L 1600.0 287.0 L 1602.0 285.0 L 1602.0 283.0 L 1605.0 277.0 L 1605.0 273.0 L 1606.0 272.0 L 1606.0 268.0 L 1607.0 267.0 L 1607.0 260.0 L 1608.0 259.0 L 1608.0 244.0 L 1607.0 243.0 L 1607.0 237.0 L 1606.0 236.0 L 1605.0 227.0 L 1602.0 224.0 L 1602.0 220.0 L 1601.0 219.0 Z
M 1555.0 240.0 L 1555.0 242.0 L 1556.0 243.0 L 1556.0 261.0 L 1555.0 262.0 L 1555.0 266.0 L 1553.0 268.0 L 1550.0 274.0 L 1543.0 281.0 L 1540.0 282.0 L 1538.0 284.0 L 1534.0 286.0 L 1529.0 287.0 L 1526.0 289.0 L 1523.0 289.0 L 1520.0 291.0 L 1515.0 292.0 L 1510.0 295.0 L 1508.0 295.0 L 1506.0 297.0 L 1501.0 299.0 L 1497.0 303.0 L 1496.0 303.0 L 1493.0 306.0 L 1492.0 306.0 L 1484.0 314.0 L 1484.0 315.0 L 1478.0 322.0 L 1475.0 328.0 L 1475.0 330.0 L 1472.0 333.0 L 1472.0 336.0 L 1471.0 337.0 L 1471.0 339.0 L 1470.0 340.0 L 1470.0 343.0 L 1469.0 344.0 L 1469.0 349.0 L 1468.0 350.0 L 1468.0 365.0 L 1469.0 366.0 L 1469.0 369.0 L 1470.0 370.0 L 1470.0 374.0 L 1473.0 380.0 L 1473.0 383.0 L 1475.0 385.0 L 1475.0 387.0 L 1477.0 389.0 L 1477.0 390.0 L 1479.0 392.0 L 1481.0 396.0 L 1494.0 409.0 L 1495.0 409.0 L 1497.0 411.0 L 1500.0 412.0 L 1503.0 415.0 L 1510.0 418.0 L 1518.0 424.0 L 1524.0 427.0 L 1525.0 429.0 L 1530.0 434.0 L 1530.0 436.0 L 1533.0 441.0 L 1533.0 444.0 L 1534.0 445.0 L 1534.0 458.0 L 1533.0 459.0 L 1533.0 464.0 L 1532.0 465.0 L 1532.0 467.0 L 1530.0 469.0 L 1530.0 471.0 L 1528.0 475.0 L 1526.0 477.0 L 1525.0 480.0 L 1515.0 490.0 L 1512.0 491.0 L 1510.0 493.0 L 1502.0 497.0 L 1500.0 497.0 L 1499.0 498.0 L 1496.0 498.0 L 1495.0 499.0 L 1489.0 499.0 L 1488.0 500.0 L 1453.0 500.0 L 1452.0 501.0 L 1449.0 501.0 L 1448.0 502.0 L 1443.0 502.0 L 1435.0 506.0 L 1433.0 506.0 L 1432.0 507.0 L 1427.0 508.0 L 1423.0 510.0 L 1420.0 513.0 L 1412.0 517.0 L 1411.0 519.0 L 1409.0 520.0 L 1402.0 527.0 L 1402.0 528.0 L 1395.0 535.0 L 1395.0 537.0 L 1391.0 541.0 L 1389.0 546.0 L 1387.0 548.0 L 1387.0 550.0 L 1384.0 555.0 L 1384.0 558.0 L 1382.0 561.0 L 1382.0 565.0 L 1381.0 566.0 L 1381.0 570.0 L 1380.0 571.0 L 1380.0 576.0 L 1379.0 577.0 L 1379.0 591.0 L 1380.0 592.0 L 1380.0 598.0 L 1381.0 599.0 L 1381.0 603.0 L 1382.0 604.0 L 1382.0 607.0 L 1384.0 611.0 L 1384.0 614.0 L 1387.0 618.0 L 1387.0 620.0 L 1389.0 622.0 L 1389.0 624.0 L 1391.0 626.0 L 1391.0 628.0 L 1395.0 632.0 L 1398.0 638.0 L 1400.0 640.0 L 1402.0 644.0 L 1403.0 649.0 L 1404.0 650.0 L 1404.0 653.0 L 1405.0 654.0 L 1405.0 664.0 L 1404.0 665.0 L 1404.0 669.0 L 1403.0 670.0 L 1403.0 673.0 L 1399.0 681.0 L 1395.0 685.0 L 1395.0 686.0 L 1392.0 689.0 L 1380.0 695.0 L 1378.0 695.0 L 1374.0 697.0 L 1367.0 697.0 L 1366.0 698.0 L 1350.0 698.0 L 1349.0 699.0 L 1340.0 699.0 L 1339.0 700.0 L 1335.0 700.0 L 1334.0 701.0 L 1331.0 701.0 L 1330.0 702.0 L 1325.0 703.0 L 1322.0 705.0 L 1320.0 705.0 L 1317.0 707.0 L 1315.0 707.0 L 1310.0 710.0 L 1308.0 710.0 L 1306.0 712.0 L 1301.0 714.0 L 1298.0 717.0 L 1292.0 720.0 L 1282.0 729.0 L 1281.0 729.0 L 1278.0 732.0 L 1277.0 732.0 L 1274.0 735.0 L 1274.0 736.0 L 1271.0 738.0 L 1266.0 738.0 L 1258.0 734.0 L 1254.0 734.0 L 1253.0 733.0 L 1251.0 733.0 L 1247.0 731.0 L 1244.0 731.0 L 1243.0 730.0 L 1240.0 730.0 L 1236.0 728.0 L 1232.0 728.0 L 1231.0 727.0 L 1228.0 727.0 L 1227.0 726.0 L 1221.0 726.0 L 1220.0 725.0 L 1216.0 725.0 L 1215.0 724.0 L 1208.0 724.0 L 1207.0 723.0 L 1199.0 723.0 L 1198.0 722.0 L 1154.0 722.0 L 1153.0 723.0 L 1144.0 723.0 L 1143.0 724.0 L 1133.0 724.0 L 1132.0 725.0 L 1127.0 725.0 L 1126.0 726.0 L 1120.0 726.0 L 1119.0 727.0 L 1116.0 727.0 L 1115.0 728.0 L 1110.0 728.0 L 1109.0 729.0 L 1100.0 730.0 L 1096.0 732.0 L 1092.0 732.0 L 1088.0 734.0 L 1085.0 734.0 L 1081.0 736.0 L 1078.0 736.0 L 1074.0 738.0 L 1071.0 738.0 L 1068.0 740.0 L 1065.0 740.0 L 1064.0 741.0 L 1059.0 742.0 L 1051.0 746.0 L 1049.0 746.0 L 1048.0 747.0 L 1043.0 748.0 L 1040.0 750.0 L 1038.0 750.0 L 1016.0 761.0 L 1014.0 761.0 L 1012.0 763.0 L 1008.0 765.0 L 1006.0 765.0 L 1004.0 766.0 L 1002.0 768.0 L 995.0 771.0 L 993.0 773.0 L 981.0 779.0 L 978.0 782.0 L 972.0 785.0 L 970.0 787.0 L 969.0 787.0 L 967.0 789.0 L 966.0 789.0 L 964.0 791.0 L 963.0 791.0 L 961.0 793.0 L 960.0 793.0 L 958.0 795.0 L 954.0 797.0 L 945.0 805.0 L 944.0 805.0 L 941.0 808.0 L 940.0 808.0 L 936.0 812.0 L 935.0 812.0 L 927.0 820.0 L 927.0 822.0 L 929.0 824.0 L 931.0 823.0 L 933.0 823.0 L 952.0 813.0 L 954.0 813.0 L 961.0 809.0 L 963.0 809.0 L 970.0 805.0 L 972.0 805.0 L 983.0 799.0 L 988.0 798.0 L 991.0 796.0 L 993.0 796.0 L 1001.0 792.0 L 1003.0 792.0 L 1004.0 791.0 L 1009.0 790.0 L 1017.0 786.0 L 1019.0 786.0 L 1020.0 785.0 L 1022.0 785.0 L 1023.0 784.0 L 1025.0 784.0 L 1029.0 782.0 L 1032.0 782.0 L 1033.0 781.0 L 1035.0 781.0 L 1038.0 779.0 L 1045.0 778.0 L 1048.0 776.0 L 1051.0 776.0 L 1052.0 775.0 L 1055.0 775.0 L 1056.0 774.0 L 1060.0 774.0 L 1063.0 772.0 L 1068.0 772.0 L 1069.0 771.0 L 1072.0 771.0 L 1073.0 770.0 L 1078.0 770.0 L 1082.0 768.0 L 1088.0 768.0 L 1089.0 767.0 L 1092.0 767.0 L 1093.0 766.0 L 1101.0 766.0 L 1105.0 764.0 L 1116.0 764.0 L 1117.0 763.0 L 1125.0 763.0 L 1126.0 762.0 L 1176.0 762.0 L 1177.0 763.0 L 1184.0 763.0 L 1185.0 764.0 L 1192.0 764.0 L 1193.0 765.0 L 1198.0 765.0 L 1199.0 766.0 L 1203.0 766.0 L 1204.0 767.0 L 1213.0 768.0 L 1216.0 770.0 L 1219.0 770.0 L 1223.0 772.0 L 1226.0 772.0 L 1227.0 773.0 L 1232.0 774.0 L 1234.0 775.0 L 1237.0 778.0 L 1237.0 783.0 L 1235.0 785.0 L 1235.0 786.0 L 1231.0 789.0 L 1229.0 793.0 L 1223.0 799.0 L 1223.0 800.0 L 1216.0 807.0 L 1215.0 807.0 L 1214.0 809.0 L 1211.0 812.0 L 1210.0 812.0 L 1209.0 814.0 L 1206.0 817.0 L 1205.0 817.0 L 1202.0 820.0 L 1201.0 822.0 L 1200.0 822.0 L 1194.0 828.0 L 1190.0 830.0 L 1186.0 835.0 L 1185.0 835.0 L 1177.0 842.0 L 1176.0 842.0 L 1172.0 846.0 L 1171.0 846.0 L 1169.0 849.0 L 1163.0 852.0 L 1154.0 860.0 L 1151.0 861.0 L 1147.0 865.0 L 1141.0 868.0 L 1138.0 871.0 L 1135.0 872.0 L 1133.0 874.0 L 1132.0 874.0 L 1127.0 878.0 L 1124.0 879.0 L 1122.0 881.0 L 1119.0 882.0 L 1117.0 884.0 L 1112.0 886.0 L 1109.0 889.0 L 1093.0 897.0 L 1091.0 899.0 L 1087.0 901.0 L 1085.0 901.0 L 1070.0 909.0 L 1068.0 909.0 L 1066.0 911.0 L 1062.0 913.0 L 1060.0 913.0 L 1055.0 916.0 L 1050.0 917.0 L 1041.0 922.0 L 1039.0 922.0 L 1036.0 924.0 L 1031.0 925.0 L 1024.0 929.0 L 1021.0 929.0 L 1020.0 930.0 L 1015.0 931.0 L 1010.0 934.0 L 1007.0 934.0 L 1006.0 935.0 L 1004.0 935.0 L 1001.0 937.0 L 996.0 938.0 L 993.0 940.0 L 991.0 940.0 L 987.0 942.0 L 983.0 942.0 L 977.0 945.0 L 970.0 946.0 L 969.0 947.0 L 967.0 947.0 L 966.0 948.0 L 964.0 948.0 L 960.0 950.0 L 953.0 951.0 L 952.0 952.0 L 950.0 952.0 L 949.0 953.0 L 946.0 953.0 L 945.0 954.0 L 942.0 954.0 L 938.0 956.0 L 933.0 956.0 L 929.0 958.0 L 925.0 958.0 L 924.0 959.0 L 922.0 959.0 L 918.0 961.0 L 912.0 961.0 L 911.0 962.0 L 907.0 962.0 L 906.0 963.0 L 903.0 963.0 L 902.0 964.0 L 898.0 964.0 L 897.0 965.0 L 894.0 965.0 L 893.0 966.0 L 887.0 966.0 L 886.0 967.0 L 883.0 967.0 L 882.0 968.0 L 876.0 968.0 L 875.0 969.0 L 871.0 969.0 L 870.0 970.0 L 864.0 970.0 L 863.0 971.0 L 859.0 971.0 L 858.0 972.0 L 851.0 972.0 L 850.0 973.0 L 844.0 973.0 L 843.0 974.0 L 836.0 974.0 L 835.0 975.0 L 832.0 975.0 L 831.0 976.0 L 823.0 976.0 L 822.0 977.0 L 813.0 977.0 L 812.0 978.0 L 803.0 978.0 L 802.0 979.0 L 799.0 978.0 L 798.0 979.0 L 792.0 979.0 L 791.0 980.0 L 775.0 980.0 L 774.0 981.0 L 763.0 981.0 L 762.0 982.0 L 691.0 982.0 L 690.0 983.0 L 686.0 983.0 L 685.0 982.0 L 652.0 982.0 L 651.0 981.0 L 643.0 981.0 L 642.0 980.0 L 623.0 980.0 L 622.0 979.0 L 614.0 979.0 L 613.0 978.0 L 599.0 978.0 L 598.0 977.0 L 590.0 977.0 L 589.0 976.0 L 584.0 976.0 L 583.0 975.0 L 578.0 975.0 L 577.0 974.0 L 570.0 974.0 L 569.0 973.0 L 564.0 973.0 L 563.0 972.0 L 554.0 972.0 L 553.0 971.0 L 548.0 971.0 L 547.0 970.0 L 542.0 970.0 L 541.0 969.0 L 536.0 969.0 L 535.0 968.0 L 530.0 968.0 L 529.0 967.0 L 526.0 967.0 L 525.0 966.0 L 519.0 966.0 L 518.0 965.0 L 515.0 965.0 L 514.0 964.0 L 509.0 964.0 L 508.0 963.0 L 504.0 963.0 L 503.0 962.0 L 499.0 962.0 L 498.0 961.0 L 493.0 961.0 L 492.0 960.0 L 489.0 960.0 L 485.0 958.0 L 481.0 958.0 L 477.0 956.0 L 473.0 956.0 L 472.0 955.0 L 469.0 955.0 L 468.0 954.0 L 464.0 954.0 L 460.0 952.0 L 457.0 952.0 L 456.0 951.0 L 453.0 951.0 L 452.0 950.0 L 448.0 950.0 L 444.0 948.0 L 441.0 948.0 L 438.0 946.0 L 435.0 946.0 L 434.0 945.0 L 430.0 945.0 L 429.0 944.0 L 427.0 944.0 L 426.0 943.0 L 424.0 943.0 L 423.0 942.0 L 421.0 942.0 L 417.0 940.0 L 414.0 940.0 L 410.0 938.0 L 407.0 938.0 L 406.0 937.0 L 404.0 937.0 L 403.0 936.0 L 398.0 935.0 L 395.0 933.0 L 393.0 933.0 L 389.0 931.0 L 386.0 931.0 L 385.0 930.0 L 380.0 929.0 L 372.0 925.0 L 369.0 925.0 L 366.0 923.0 L 363.0 923.0 L 360.0 921.0 L 355.0 920.0 L 345.0 915.0 L 342.0 915.0 L 335.0 911.0 L 330.0 910.0 L 316.0 903.0 L 314.0 903.0 L 307.0 899.0 L 305.0 899.0 L 267.0 880.0 L 265.0 878.0 L 243.0 867.0 L 240.0 864.0 L 235.0 862.0 L 233.0 860.0 L 227.0 857.0 L 222.0 853.0 L 219.0 852.0 L 214.0 848.0 L 209.0 846.0 L 205.0 842.0 L 201.0 840.0 L 198.0 837.0 L 193.0 835.0 L 182.0 826.0 L 179.0 825.0 L 176.0 821.0 L 173.0 820.0 L 171.0 817.0 L 168.0 816.0 L 164.0 812.0 L 163.0 812.0 L 154.0 803.0 L 153.0 803.0 L 148.0 798.0 L 147.0 798.0 L 146.0 796.0 L 141.0 791.0 L 139.0 790.0 L 139.0 789.0 L 132.0 782.0 L 132.0 781.0 L 129.0 778.0 L 128.0 778.0 L 127.0 776.0 L 122.0 771.0 L 122.0 770.0 L 117.0 764.0 L 117.0 763.0 L 114.0 760.0 L 112.0 756.0 L 108.0 752.0 L 108.0 750.0 L 105.0 747.0 L 105.0 745.0 L 103.0 743.0 L 103.0 741.0 L 99.0 736.0 L 98.0 731.0 L 96.0 728.0 L 96.0 726.0 L 94.0 722.0 L 94.0 719.0 L 93.0 718.0 L 93.0 716.0 L 91.0 712.0 L 91.0 705.0 L 90.0 704.0 L 90.0 698.0 L 89.0 697.0 L 89.0 678.0 L 90.0 677.0 L 90.0 673.0 L 92.0 670.0 L 92.0 668.0 L 94.0 666.0 L 94.0 664.0 L 97.0 661.0 L 98.0 658.0 L 103.0 654.0 L 109.0 651.0 L 111.0 651.0 L 112.0 650.0 L 124.0 650.0 L 128.0 652.0 L 132.0 652.0 L 135.0 654.0 L 137.0 654.0 L 149.0 660.0 L 151.0 662.0 L 154.0 663.0 L 160.0 668.0 L 161.0 668.0 L 172.0 676.0 L 175.0 677.0 L 177.0 679.0 L 181.0 681.0 L 184.0 684.0 L 187.0 685.0 L 189.0 687.0 L 197.0 691.0 L 199.0 693.0 L 204.0 695.0 L 206.0 697.0 L 208.0 697.0 L 217.0 702.0 L 219.0 702.0 L 228.0 707.0 L 230.0 707.0 L 238.0 711.0 L 241.0 711.0 L 244.0 713.0 L 246.0 713.0 L 250.0 715.0 L 254.0 715.0 L 258.0 717.0 L 263.0 717.0 L 264.0 718.0 L 267.0 718.0 L 268.0 719.0 L 274.0 719.0 L 275.0 720.0 L 282.0 720.0 L 283.0 721.0 L 288.0 721.0 L 289.0 722.0 L 304.0 722.0 L 305.0 723.0 L 306.0 722.0 L 321.0 722.0 L 322.0 721.0 L 327.0 721.0 L 328.0 720.0 L 337.0 720.0 L 338.0 719.0 L 347.0 718.0 L 348.0 717.0 L 351.0 717.0 L 352.0 716.0 L 359.0 715.0 L 360.0 714.0 L 365.0 713.0 L 368.0 711.0 L 371.0 711.0 L 378.0 707.0 L 380.0 707.0 L 390.0 702.0 L 392.0 700.0 L 402.0 695.0 L 408.0 690.0 L 411.0 689.0 L 419.0 681.0 L 423.0 679.0 L 424.0 677.0 L 426.0 676.0 L 428.0 674.0 L 428.0 673.0 L 430.0 672.0 L 431.0 670.0 L 433.0 669.0 L 434.0 667.0 L 437.0 665.0 L 439.0 661.0 L 442.0 658.0 L 442.0 657.0 L 445.0 655.0 L 445.0 654.0 L 448.0 651.0 L 450.0 647.0 L 454.0 644.0 L 454.0 642.0 L 456.0 640.0 L 457.0 640.0 L 465.0 632.0 L 469.0 630.0 L 473.0 630.0 L 474.0 629.0 L 476.0 629.0 L 477.0 630.0 L 480.0 630.0 L 486.0 633.0 L 489.0 636.0 L 493.0 638.0 L 496.0 641.0 L 497.0 641.0 L 503.0 646.0 L 509.0 649.0 L 512.0 649.0 L 518.0 652.0 L 523.0 652.0 L 524.0 653.0 L 541.0 653.0 L 542.0 652.0 L 548.0 652.0 L 551.0 650.0 L 555.0 650.0 L 558.0 648.0 L 560.0 648.0 L 572.0 642.0 L 574.0 640.0 L 579.0 638.0 L 581.0 636.0 L 582.0 636.0 L 588.0 630.0 L 589.0 630.0 L 592.0 627.0 L 592.0 626.0 L 595.0 623.0 L 596.0 623.0 L 597.0 621.0 L 602.0 616.0 L 604.0 615.0 L 607.0 609.0 L 613.0 602.0 L 614.0 600.0 L 614.0 598.0 L 616.0 596.0 L 616.0 594.0 L 618.0 592.0 L 618.0 590.0 L 620.0 588.0 L 620.0 586.0 L 623.0 582.0 L 623.0 579.0 L 626.0 573.0 L 626.0 568.0 L 628.0 565.0 L 628.0 562.0 L 630.0 558.0 L 630.0 551.0 L 631.0 550.0 L 631.0 541.0 L 632.0 540.0 L 633.0 531.0 L 636.0 525.0 L 636.0 522.0 L 638.0 520.0 L 638.0 519.0 L 644.0 513.0 L 650.0 510.0 L 652.0 510.0 L 655.0 508.0 L 671.0 508.0 L 672.0 509.0 L 675.0 509.0 L 676.0 510.0 L 678.0 510.0 L 681.0 512.0 L 688.0 512.0 L 691.0 514.0 L 694.0 514.0 L 698.0 516.0 L 724.0 516.0 L 725.0 515.0 L 729.0 515.0 L 730.0 514.0 L 735.0 514.0 L 738.0 512.0 L 740.0 512.0 L 752.0 506.0 L 755.0 503.0 L 756.0 503.0 L 759.0 500.0 L 760.0 500.0 L 764.0 496.0 L 765.0 496.0 L 768.0 492.0 L 768.0 491.0 L 771.0 488.0 L 773.0 487.0 L 777.0 479.0 L 779.0 477.0 L 779.0 475.0 L 781.0 473.0 L 781.0 470.0 L 784.0 464.0 L 784.0 460.0 L 785.0 459.0 L 785.0 454.0 L 786.0 453.0 L 786.0 449.0 L 787.0 448.0 L 786.0 446.0 L 786.0 442.0 L 787.0 441.0 L 787.0 432.0 L 786.0 431.0 L 786.0 425.0 L 785.0 424.0 L 785.0 415.0 L 784.0 414.0 L 784.0 411.0 L 783.0 410.0 L 783.0 406.0 L 782.0 405.0 L 782.0 398.0 L 781.0 397.0 L 781.0 392.0 L 782.0 391.0 L 782.0 386.0 L 783.0 385.0 L 783.0 382.0 L 787.0 376.0 L 788.0 376.0 L 790.0 374.0 L 796.0 371.0 L 800.0 371.0 L 801.0 370.0 L 811.0 370.0 L 812.0 371.0 L 819.0 372.0 L 823.0 374.0 L 830.0 375.0 L 834.0 377.0 L 839.0 377.0 L 840.0 378.0 L 844.0 378.0 L 845.0 379.0 L 860.0 379.0 L 861.0 378.0 L 869.0 378.0 L 870.0 377.0 L 873.0 377.0 L 874.0 376.0 L 876.0 376.0 L 877.0 375.0 L 880.0 375.0 L 883.0 373.0 L 885.0 373.0 L 887.0 371.0 L 890.0 370.0 L 892.0 368.0 L 896.0 366.0 L 899.0 363.0 L 900.0 363.0 L 909.0 354.0 L 909.0 353.0 L 912.0 350.0 L 914.0 346.0 L 917.0 343.0 L 917.0 341.0 L 919.0 339.0 L 920.0 334.0 L 923.0 330.0 L 923.0 328.0 L 925.0 324.0 L 925.0 321.0 L 926.0 320.0 L 926.0 314.0 L 927.0 313.0 L 927.0 304.0 L 928.0 303.0 L 928.0 297.0 L 927.0 296.0 L 927.0 286.0 L 926.0 285.0 L 926.0 281.0 L 925.0 280.0 L 925.0 274.0 L 924.0 273.0 L 924.0 268.0 L 923.0 267.0 L 923.0 249.0 L 924.0 248.0 L 924.0 244.0 L 925.0 243.0 L 925.0 241.0 L 927.0 239.0 L 927.0 237.0 L 929.0 235.0 L 930.0 232.0 L 936.0 226.0 L 937.0 224.0 L 938.0 224.0 L 942.0 220.0 L 945.0 219.0 L 947.0 217.0 L 955.0 213.0 L 958.0 213.0 L 962.0 211.0 L 968.0 211.0 L 969.0 210.0 L 981.0 210.0 L 982.0 211.0 L 988.0 211.0 L 996.0 215.0 L 998.0 215.0 L 1004.0 218.0 L 1006.0 220.0 L 1015.0 224.0 L 1018.0 227.0 L 1022.0 229.0 L 1024.0 229.0 L 1027.0 231.0 L 1029.0 231.0 L 1032.0 233.0 L 1035.0 233.0 L 1039.0 235.0 L 1045.0 235.0 L 1046.0 236.0 L 1052.0 236.0 L 1053.0 237.0 L 1055.0 237.0 L 1056.0 236.0 L 1060.0 236.0 L 1062.0 237.0 L 1063.0 236.0 L 1068.0 236.0 L 1069.0 235.0 L 1074.0 235.0 L 1075.0 234.0 L 1078.0 234.0 L 1086.0 230.0 L 1091.0 229.0 L 1093.0 227.0 L 1094.0 227.0 L 1096.0 225.0 L 1099.0 224.0 L 1102.0 221.0 L 1103.0 221.0 L 1109.0 215.0 L 1110.0 215.0 L 1112.0 213.0 L 1112.0 212.0 L 1120.0 204.0 L 1120.0 202.0 L 1126.0 195.0 L 1126.0 193.0 L 1130.0 188.0 L 1132.0 184.0 L 1133.0 179.0 L 1136.0 174.0 L 1136.0 172.0 L 1137.0 171.0 L 1137.0 167.0 L 1140.0 163.0 L 1140.0 159.0 L 1142.0 156.0 L 1142.0 151.0 L 1144.0 147.0 L 1144.0 144.0 L 1145.0 143.0 L 1145.0 140.0 L 1146.0 139.0 L 1146.0 135.0 L 1149.0 130.0 L 1149.0 127.0 L 1150.0 126.0 L 1150.0 124.0 L 1154.0 119.0 L 1154.0 117.0 L 1158.0 113.0 L 1158.0 112.0 L 1165.0 105.0 L 1167.0 104.0 L 1168.0 102.0 L 1169.0 102.0 L 1171.0 100.0 L 1181.0 95.0 L 1183.0 95.0 L 1187.0 93.0 L 1198.0 93.0 L 1199.0 92.0 L 1201.0 93.0 L 1208.0 93.0 L 1211.0 95.0 L 1213.0 95.0 L 1219.0 98.0 L 1225.0 103.0 L 1226.0 103.0 L 1237.0 114.0 L 1237.0 115.0 L 1240.0 118.0 L 1242.0 122.0 L 1246.0 126.0 L 1247.0 126.0 L 1251.0 130.0 L 1251.0 131.0 L 1255.0 134.0 L 1256.0 136.0 L 1259.0 137.0 L 1263.0 141.0 L 1269.0 144.0 L 1271.0 144.0 L 1278.0 148.0 L 1281.0 148.0 L 1282.0 149.0 L 1285.0 149.0 L 1286.0 150.0 L 1292.0 150.0 L 1293.0 151.0 L 1299.0 151.0 L 1300.0 152.0 L 1302.0 152.0 L 1303.0 151.0 L 1305.0 152.0 L 1309.0 152.0 L 1310.0 151.0 L 1314.0 151.0 L 1315.0 150.0 L 1321.0 150.0 L 1322.0 149.0 L 1325.0 149.0 L 1328.0 147.0 L 1333.0 146.0 L 1336.0 144.0 L 1338.0 144.0 L 1342.0 141.0 L 1350.0 137.0 L 1354.0 133.0 L 1358.0 131.0 L 1363.0 126.0 L 1366.0 125.0 L 1370.0 121.0 L 1374.0 119.0 L 1377.0 116.0 L 1393.0 108.0 L 1396.0 108.0 L 1397.0 107.0 L 1402.0 107.0 L 1403.0 106.0 L 1417.0 106.0 L 1418.0 107.0 L 1422.0 107.0 L 1423.0 108.0 L 1426.0 108.0 L 1430.0 110.0 L 1432.0 112.0 L 1433.0 112.0 L 1434.0 114.0 L 1441.0 121.0 L 1441.0 123.0 L 1443.0 125.0 L 1443.0 128.0 L 1445.0 132.0 L 1445.0 168.0 L 1446.0 169.0 L 1446.0 174.0 L 1447.0 175.0 L 1448.0 182.0 L 1453.0 191.0 L 1453.0 194.0 L 1459.0 200.0 L 1459.0 201.0 L 1464.0 206.0 L 1468.0 208.0 L 1470.0 211.0 L 1480.0 216.0 L 1482.0 216.0 L 1486.0 218.0 L 1489.0 218.0 L 1490.0 219.0 L 1504.0 219.0 L 1505.0 220.0 L 1507.0 220.0 L 1508.0 219.0 L 1528.0 219.0 L 1529.0 220.0 L 1536.0 221.0 L 1544.0 225.0 L 1551.0 232.0 Z
M 1363.0 311.0 L 1361.0 309.0 L 1359.0 310.0 L 1357.0 310.0 L 1356.0 311.0 L 1352.0 311.0 L 1349.0 313.0 L 1347.0 313.0 L 1346.0 314.0 L 1344.0 314.0 L 1343.0 315.0 L 1341.0 315.0 L 1340.0 316.0 L 1335.0 317.0 L 1328.0 321.0 L 1325.0 321.0 L 1322.0 323.0 L 1320.0 323.0 L 1313.0 327.0 L 1311.0 327.0 L 1300.0 333.0 L 1298.0 333.0 L 1294.0 335.0 L 1292.0 337.0 L 1277.0 344.0 L 1275.0 346.0 L 1272.0 347.0 L 1270.0 349.0 L 1265.0 351.0 L 1260.0 355.0 L 1255.0 357.0 L 1247.0 363.0 L 1244.0 364.0 L 1238.0 369.0 L 1237.0 369.0 L 1234.0 372.0 L 1233.0 372.0 L 1230.0 375.0 L 1229.0 375.0 L 1226.0 378.0 L 1225.0 378.0 L 1223.0 380.0 L 1219.0 382.0 L 1217.0 385.0 L 1213.0 387.0 L 1208.0 392.0 L 1203.0 394.0 L 1201.0 393.0 L 1198.0 390.0 L 1198.0 386.0 L 1199.0 385.0 L 1199.0 383.0 L 1200.0 382.0 L 1200.0 380.0 L 1201.0 379.0 L 1202.0 374.0 L 1204.0 372.0 L 1204.0 370.0 L 1206.0 367.0 L 1206.0 364.0 L 1207.0 363.0 L 1207.0 360.0 L 1208.0 359.0 L 1208.0 356.0 L 1209.0 355.0 L 1209.0 351.0 L 1210.0 350.0 L 1210.0 348.0 L 1212.0 344.0 L 1212.0 341.0 L 1213.0 340.0 L 1213.0 337.0 L 1215.0 333.0 L 1216.0 324.0 L 1217.0 323.0 L 1217.0 320.0 L 1218.0 319.0 L 1218.0 313.0 L 1220.0 310.0 L 1220.0 304.0 L 1221.0 303.0 L 1221.0 298.0 L 1222.0 297.0 L 1222.0 293.0 L 1223.0 292.0 L 1223.0 285.0 L 1224.0 284.0 L 1224.0 281.0 L 1225.0 280.0 L 1225.0 275.0 L 1226.0 274.0 L 1226.0 265.0 L 1227.0 264.0 L 1227.0 261.0 L 1228.0 260.0 L 1228.0 244.0 L 1227.0 243.0 L 1224.0 243.0 L 1221.0 247.0 L 1221.0 249.0 L 1220.0 250.0 L 1220.0 253.0 L 1218.0 257.0 L 1218.0 260.0 L 1217.0 261.0 L 1217.0 263.0 L 1216.0 264.0 L 1216.0 266.0 L 1215.0 267.0 L 1215.0 269.0 L 1213.0 273.0 L 1213.0 276.0 L 1212.0 277.0 L 1211.0 282.0 L 1209.0 285.0 L 1209.0 287.0 L 1208.0 288.0 L 1208.0 290.0 L 1206.0 294.0 L 1206.0 297.0 L 1205.0 298.0 L 1204.0 303.0 L 1202.0 306.0 L 1202.0 308.0 L 1198.0 316.0 L 1198.0 320.0 L 1195.0 325.0 L 1195.0 328.0 L 1194.0 329.0 L 1194.0 331.0 L 1192.0 334.0 L 1192.0 336.0 L 1191.0 337.0 L 1190.0 342.0 L 1186.0 350.0 L 1186.0 353.0 L 1184.0 355.0 L 1184.0 357.0 L 1181.0 363.0 L 1180.0 368.0 L 1178.0 370.0 L 1178.0 372.0 L 1176.0 375.0 L 1176.0 377.0 L 1172.0 383.0 L 1172.0 385.0 L 1171.0 386.0 L 1171.0 389.0 L 1169.0 391.0 L 1169.0 393.0 L 1161.0 409.0 L 1159.0 411.0 L 1158.0 413.0 L 1158.0 415.0 L 1155.0 419.0 L 1155.0 421.0 L 1153.0 423.0 L 1152.0 426.0 L 1150.0 428.0 L 1149.0 430.0 L 1149.0 432.0 L 1147.0 434.0 L 1146.0 437.0 L 1144.0 439.0 L 1138.0 451.0 L 1135.0 454.0 L 1133.0 459.0 L 1129.0 463.0 L 1126.0 469.0 L 1120.0 476.0 L 1119.0 479.0 L 1109.0 490.0 L 1109.0 491.0 L 1106.0 494.0 L 1106.0 495.0 L 1103.0 498.0 L 1103.0 499.0 L 1093.0 510.0 L 1091.0 514.0 L 1089.0 515.0 L 1083.0 521.0 L 1083.0 522.0 L 1078.0 527.0 L 1078.0 528.0 L 1076.0 529.0 L 1075.0 531.0 L 1073.0 532.0 L 1066.0 539.0 L 1066.0 540.0 L 1064.0 541.0 L 1062.0 543.0 L 1062.0 544.0 L 1060.0 545.0 L 1059.0 547.0 L 1057.0 548.0 L 1055.0 550.0 L 1055.0 551.0 L 1049.0 557.0 L 1048.0 557.0 L 1045.0 561.0 L 1043.0 562.0 L 1042.0 564.0 L 1041.0 564.0 L 1034.0 571.0 L 1033.0 571.0 L 1029.0 575.0 L 1028.0 577.0 L 1027.0 577.0 L 1015.0 588.0 L 1014.0 588.0 L 1011.0 591.0 L 1010.0 593.0 L 1006.0 595.0 L 1001.0 600.0 L 1000.0 600.0 L 996.0 604.0 L 995.0 604.0 L 987.0 612.0 L 983.0 614.0 L 979.0 618.0 L 978.0 618.0 L 974.0 622.0 L 973.0 622.0 L 971.0 625.0 L 970.0 625.0 L 966.0 629.0 L 963.0 630.0 L 958.0 635.0 L 953.0 637.0 L 951.0 636.0 L 948.0 633.0 L 948.0 630.0 L 950.0 626.0 L 952.0 624.0 L 952.0 622.0 L 956.0 615.0 L 956.0 613.0 L 959.0 608.0 L 959.0 606.0 L 961.0 604.0 L 961.0 601.0 L 962.0 600.0 L 962.0 598.0 L 967.0 589.0 L 967.0 587.0 L 968.0 586.0 L 968.0 583.0 L 970.0 580.0 L 971.0 575.0 L 973.0 572.0 L 973.0 570.0 L 974.0 569.0 L 974.0 567.0 L 976.0 563.0 L 976.0 560.0 L 978.0 556.0 L 978.0 552.0 L 980.0 549.0 L 980.0 546.0 L 982.0 542.0 L 982.0 539.0 L 983.0 538.0 L 983.0 534.0 L 985.0 530.0 L 985.0 524.0 L 986.0 523.0 L 986.0 521.0 L 988.0 517.0 L 988.0 514.0 L 989.0 513.0 L 989.0 510.0 L 990.0 509.0 L 990.0 505.0 L 991.0 504.0 L 991.0 499.0 L 992.0 498.0 L 992.0 494.0 L 993.0 493.0 L 993.0 487.0 L 994.0 486.0 L 994.0 478.0 L 995.0 477.0 L 995.0 469.0 L 996.0 468.0 L 996.0 460.0 L 997.0 459.0 L 997.0 445.0 L 998.0 444.0 L 998.0 416.0 L 996.0 414.0 L 994.0 414.0 L 992.0 417.0 L 992.0 419.0 L 990.0 423.0 L 990.0 426.0 L 988.0 430.0 L 988.0 434.0 L 986.0 437.0 L 986.0 439.0 L 984.0 443.0 L 983.0 450.0 L 981.0 454.0 L 981.0 458.0 L 979.0 461.0 L 979.0 467.0 L 977.0 469.0 L 977.0 471.0 L 976.0 472.0 L 976.0 475.0 L 975.0 476.0 L 975.0 478.0 L 973.0 482.0 L 973.0 487.0 L 971.0 490.0 L 971.0 493.0 L 970.0 494.0 L 970.0 497.0 L 968.0 501.0 L 968.0 504.0 L 967.0 505.0 L 966.0 510.0 L 963.0 516.0 L 963.0 521.0 L 960.0 525.0 L 960.0 528.0 L 959.0 529.0 L 959.0 531.0 L 957.0 534.0 L 957.0 536.0 L 955.0 539.0 L 955.0 541.0 L 951.0 549.0 L 951.0 552.0 L 947.0 560.0 L 947.0 563.0 L 944.0 567.0 L 944.0 570.0 L 941.0 573.0 L 941.0 576.0 L 940.0 577.0 L 940.0 579.0 L 937.0 584.0 L 937.0 586.0 L 935.0 588.0 L 935.0 590.0 L 931.0 596.0 L 931.0 599.0 L 928.0 602.0 L 923.0 613.0 L 921.0 615.0 L 920.0 618.0 L 918.0 620.0 L 917.0 622.0 L 917.0 624.0 L 911.0 631.0 L 911.0 633.0 L 909.0 635.0 L 907.0 639.0 L 904.0 642.0 L 901.0 648.0 L 897.0 652.0 L 895.0 656.0 L 892.0 659.0 L 891.0 662.0 L 886.0 667.0 L 886.0 668.0 L 883.0 671.0 L 881.0 675.0 L 877.0 678.0 L 877.0 680.0 L 871.0 685.0 L 870.0 688.0 L 868.0 689.0 L 863.0 694.0 L 863.0 695.0 L 856.0 702.0 L 854.0 703.0 L 854.0 704.0 L 852.0 706.0 L 851.0 706.0 L 834.0 723.0 L 831.0 724.0 L 826.0 729.0 L 825.0 729.0 L 822.0 732.0 L 821.0 732.0 L 817.0 737.0 L 816.0 737.0 L 808.0 743.0 L 805.0 744.0 L 801.0 748.0 L 798.0 749.0 L 794.0 753.0 L 789.0 755.0 L 786.0 758.0 L 781.0 760.0 L 773.0 766.0 L 759.0 773.0 L 757.0 775.0 L 721.0 793.0 L 719.0 793.0 L 716.0 795.0 L 714.0 795.0 L 707.0 799.0 L 705.0 799.0 L 702.0 801.0 L 700.0 801.0 L 697.0 803.0 L 695.0 803.0 L 690.0 806.0 L 688.0 806.0 L 682.0 809.0 L 680.0 809.0 L 679.0 810.0 L 677.0 810.0 L 676.0 811.0 L 674.0 811.0 L 673.0 812.0 L 671.0 812.0 L 670.0 813.0 L 665.0 814.0 L 660.0 817.0 L 656.0 817.0 L 655.0 818.0 L 653.0 818.0 L 652.0 819.0 L 650.0 819.0 L 649.0 820.0 L 647.0 820.0 L 643.0 822.0 L 639.0 822.0 L 636.0 824.0 L 633.0 824.0 L 632.0 825.0 L 630.0 825.0 L 626.0 827.0 L 622.0 827.0 L 621.0 828.0 L 617.0 828.0 L 616.0 829.0 L 613.0 829.0 L 612.0 830.0 L 608.0 830.0 L 607.0 831.0 L 605.0 831.0 L 601.0 833.0 L 596.0 833.0 L 595.0 834.0 L 590.0 834.0 L 586.0 836.0 L 580.0 836.0 L 579.0 837.0 L 575.0 837.0 L 574.0 838.0 L 568.0 838.0 L 567.0 839.0 L 564.0 839.0 L 563.0 840.0 L 558.0 840.0 L 557.0 841.0 L 551.0 841.0 L 550.0 842.0 L 542.0 842.0 L 541.0 843.0 L 535.0 843.0 L 534.0 844.0 L 523.0 844.0 L 522.0 845.0 L 516.0 845.0 L 515.0 846.0 L 502.0 846.0 L 501.0 847.0 L 489.0 847.0 L 488.0 848.0 L 475.0 848.0 L 474.0 849.0 L 472.0 848.0 L 470.0 849.0 L 464.0 849.0 L 463.0 848.0 L 461.0 849.0 L 435.0 849.0 L 434.0 848.0 L 423.0 848.0 L 422.0 849.0 L 417.0 849.0 L 416.0 848.0 L 400.0 848.0 L 399.0 847.0 L 390.0 847.0 L 389.0 846.0 L 370.0 846.0 L 370.0 848.0 L 372.0 850.0 L 376.0 852.0 L 379.0 852.0 L 380.0 853.0 L 383.0 853.0 L 384.0 854.0 L 388.0 854.0 L 389.0 855.0 L 394.0 855.0 L 398.0 857.0 L 402.0 857.0 L 403.0 858.0 L 408.0 858.0 L 409.0 859.0 L 412.0 859.0 L 413.0 860.0 L 419.0 860.0 L 420.0 861.0 L 424.0 861.0 L 425.0 862.0 L 434.0 862.0 L 435.0 863.0 L 441.0 863.0 L 442.0 864.0 L 451.0 864.0 L 452.0 865.0 L 460.0 865.0 L 461.0 866.0 L 479.0 866.0 L 480.0 867.0 L 541.0 867.0 L 542.0 866.0 L 560.0 866.0 L 561.0 865.0 L 569.0 865.0 L 570.0 864.0 L 579.0 864.0 L 580.0 863.0 L 584.0 863.0 L 585.0 862.0 L 595.0 862.0 L 596.0 861.0 L 600.0 861.0 L 601.0 860.0 L 608.0 860.0 L 609.0 859.0 L 612.0 859.0 L 613.0 858.0 L 619.0 858.0 L 620.0 857.0 L 624.0 857.0 L 625.0 856.0 L 630.0 856.0 L 634.0 854.0 L 638.0 854.0 L 639.0 853.0 L 642.0 853.0 L 643.0 852.0 L 646.0 852.0 L 647.0 851.0 L 650.0 851.0 L 651.0 850.0 L 658.0 849.0 L 662.0 847.0 L 666.0 847.0 L 667.0 846.0 L 669.0 846.0 L 670.0 845.0 L 673.0 845.0 L 677.0 843.0 L 680.0 843.0 L 681.0 842.0 L 683.0 842.0 L 684.0 841.0 L 686.0 841.0 L 690.0 839.0 L 693.0 839.0 L 696.0 837.0 L 699.0 837.0 L 705.0 834.0 L 708.0 834.0 L 711.0 832.0 L 716.0 831.0 L 719.0 829.0 L 721.0 829.0 L 729.0 825.0 L 732.0 825.0 L 744.0 819.0 L 746.0 819.0 L 751.0 816.0 L 753.0 816.0 L 756.0 814.0 L 758.0 814.0 L 788.0 799.0 L 790.0 797.0 L 799.0 793.0 L 801.0 791.0 L 810.0 787.0 L 812.0 785.0 L 822.0 780.0 L 825.0 777.0 L 828.0 776.0 L 830.0 774.0 L 833.0 773.0 L 836.0 770.0 L 844.0 766.0 L 848.0 762.0 L 849.0 762.0 L 851.0 760.0 L 852.0 760.0 L 854.0 758.0 L 855.0 758.0 L 857.0 756.0 L 858.0 756.0 L 860.0 754.0 L 861.0 754.0 L 863.0 752.0 L 864.0 752.0 L 866.0 750.0 L 870.0 748.0 L 874.0 744.0 L 878.0 742.0 L 884.0 736.0 L 890.0 733.0 L 899.0 725.0 L 902.0 724.0 L 910.0 717.0 L 913.0 716.0 L 915.0 713.0 L 919.0 711.0 L 922.0 708.0 L 925.0 707.0 L 927.0 704.0 L 928.0 704.0 L 931.0 701.0 L 934.0 700.0 L 939.0 695.0 L 940.0 695.0 L 943.0 692.0 L 944.0 692.0 L 948.0 688.0 L 951.0 687.0 L 954.0 684.0 L 955.0 684.0 L 958.0 681.0 L 962.0 679.0 L 965.0 676.0 L 968.0 675.0 L 977.0 667.0 L 980.0 666.0 L 983.0 663.0 L 989.0 660.0 L 993.0 656.0 L 996.0 655.0 L 999.0 652.0 L 1002.0 651.0 L 1008.0 646.0 L 1013.0 644.0 L 1015.0 641.0 L 1020.0 639.0 L 1023.0 636.0 L 1026.0 635.0 L 1031.0 631.0 L 1037.0 628.0 L 1040.0 625.0 L 1050.0 620.0 L 1052.0 618.0 L 1055.0 617.0 L 1057.0 615.0 L 1062.0 613.0 L 1064.0 611.0 L 1069.0 609.0 L 1071.0 607.0 L 1078.0 604.0 L 1080.0 602.0 L 1101.0 592.0 L 1103.0 590.0 L 1109.0 587.0 L 1111.0 587.0 L 1113.0 585.0 L 1117.0 583.0 L 1119.0 583.0 L 1126.0 579.0 L 1128.0 579.0 L 1139.0 573.0 L 1141.0 573.0 L 1148.0 569.0 L 1150.0 569.0 L 1157.0 565.0 L 1159.0 565.0 L 1160.0 564.0 L 1165.0 563.0 L 1170.0 560.0 L 1172.0 560.0 L 1178.0 557.0 L 1183.0 556.0 L 1186.0 554.0 L 1188.0 554.0 L 1189.0 553.0 L 1194.0 552.0 L 1197.0 550.0 L 1200.0 550.0 L 1203.0 548.0 L 1205.0 548.0 L 1206.0 547.0 L 1208.0 547.0 L 1209.0 546.0 L 1211.0 546.0 L 1215.0 544.0 L 1218.0 544.0 L 1221.0 542.0 L 1224.0 542.0 L 1228.0 540.0 L 1231.0 540.0 L 1235.0 538.0 L 1238.0 538.0 L 1244.0 535.0 L 1247.0 535.0 L 1248.0 534.0 L 1251.0 534.0 L 1252.0 533.0 L 1259.0 532.0 L 1263.0 530.0 L 1267.0 530.0 L 1270.0 528.0 L 1275.0 528.0 L 1279.0 526.0 L 1284.0 526.0 L 1285.0 525.0 L 1287.0 525.0 L 1288.0 524.0 L 1292.0 524.0 L 1296.0 522.0 L 1301.0 522.0 L 1305.0 520.0 L 1310.0 520.0 L 1313.0 517.0 L 1313.0 516.0 L 1309.0 513.0 L 1275.0 513.0 L 1274.0 514.0 L 1260.0 514.0 L 1259.0 515.0 L 1249.0 515.0 L 1248.0 516.0 L 1240.0 516.0 L 1239.0 517.0 L 1233.0 517.0 L 1232.0 518.0 L 1227.0 518.0 L 1226.0 519.0 L 1222.0 519.0 L 1221.0 520.0 L 1212.0 521.0 L 1208.0 523.0 L 1202.0 523.0 L 1201.0 524.0 L 1198.0 524.0 L 1197.0 525.0 L 1194.0 525.0 L 1193.0 526.0 L 1186.0 527.0 L 1182.0 529.0 L 1179.0 529.0 L 1175.0 531.0 L 1172.0 531.0 L 1169.0 533.0 L 1165.0 533.0 L 1164.0 534.0 L 1159.0 535.0 L 1156.0 537.0 L 1153.0 537.0 L 1150.0 539.0 L 1147.0 539.0 L 1144.0 541.0 L 1141.0 541.0 L 1138.0 543.0 L 1136.0 543.0 L 1128.0 547.0 L 1123.0 548.0 L 1118.0 551.0 L 1116.0 551.0 L 1108.0 555.0 L 1103.0 555.0 L 1100.0 552.0 L 1100.0 549.0 L 1102.0 547.0 L 1104.0 543.0 L 1112.0 535.0 L 1112.0 534.0 L 1115.0 531.0 L 1115.0 530.0 L 1121.0 525.0 L 1122.0 522.0 L 1135.0 508.0 L 1135.0 507.0 L 1138.0 504.0 L 1138.0 503.0 L 1140.0 502.0 L 1143.0 499.0 L 1143.0 498.0 L 1150.0 491.0 L 1150.0 490.0 L 1161.0 478.0 L 1161.0 477.0 L 1166.0 473.0 L 1166.0 472.0 L 1170.0 468.0 L 1170.0 467.0 L 1180.0 457.0 L 1180.0 456.0 L 1182.0 455.0 L 1183.0 453.0 L 1185.0 452.0 L 1186.0 450.0 L 1188.0 449.0 L 1190.0 447.0 L 1190.0 446.0 L 1203.0 433.0 L 1204.0 433.0 L 1210.0 426.0 L 1211.0 426.0 L 1221.0 416.0 L 1222.0 416.0 L 1224.0 413.0 L 1228.0 411.0 L 1235.0 404.0 L 1236.0 404.0 L 1239.0 400.0 L 1240.0 400.0 L 1244.0 396.0 L 1245.0 396.0 L 1251.0 390.0 L 1255.0 388.0 L 1264.0 380.0 L 1265.0 380.0 L 1272.0 374.0 L 1276.0 372.0 L 1284.0 365.0 L 1285.0 365.0 L 1287.0 363.0 L 1291.0 361.0 L 1294.0 358.0 L 1300.0 355.0 L 1305.0 350.0 L 1308.0 349.0 L 1310.0 347.0 L 1311.0 347.0 L 1313.0 345.0 L 1314.0 345.0 L 1316.0 343.0 L 1317.0 343.0 L 1319.0 341.0 L 1320.0 341.0 L 1331.0 333.0 L 1336.0 331.0 L 1339.0 328.0 L 1342.0 327.0 L 1345.0 324.0 L 1348.0 323.0 L 1351.0 320.0 L 1360.0 316.0 L 1363.0 313.0 Z" fill="#00751f" fill-rule="evenodd"/>
</svg>
